<svg width="41" height="40" viewBox="0 0 41 40" fill="none" xmlns="http://www.w3.org/2000/svg">
<path fill-rule="evenodd" clip-rule="evenodd" d="M35.8129 21.796C36.5229 21.6983 37.0701 21.0807 37.0701 20.3334C37.0701 19.5182 36.4189 18.8573 35.6155 18.8573L10.0483 18.8573L19.2842 9.52203L19.4254 9.35677C19.849 8.77979 19.8038 7.95964 19.2884 7.4345C18.7216 6.85686 17.8006 6.85492 17.2314 7.43018L5.51908 19.2672C5.44734 19.3369 5.38262 19.414 5.32611 19.4973C4.93468 20.0732 4.9921 20.8686 5.49833 21.3802L17.2315 33.2362L17.395 33.3788C17.9653 33.8063 18.7733 33.7569 19.2885 33.2318C19.8553 32.6541 19.8533 31.7194 19.2841 31.1442L10.046 21.8095L35.6155 21.8095L35.8129 21.796Z" fill="black"/>
</svg>
