<svg width="41" height="40" viewBox="0 0 41 40" fill="none" xmlns="http://www.w3.org/2000/svg">
<path fill-rule="evenodd" clip-rule="evenodd" d="M21.1743 4C25.2108 4 28.5453 7.07565 28.9565 11.0093L29.0712 11.0107C31.3104 11.0107 34.0329 12.4978 34.9518 16.6689L36.1702 26.0997C36.6072 29.1435 36.0606 31.5849 34.5425 33.3361C33.0323 35.0781 30.6417 36 27.6289 36H14.7373C11.428 36 9.12236 35.1893 7.68774 33.523C6.24693 31.8521 5.76512 29.3458 6.2562 26.075L7.45455 16.7692C8.24213 12.5024 11.1222 11.0107 13.3521 11.0107C13.5446 9.23549 14.3451 7.54672 15.6149 6.28088C17.0743 4.83082 19.0864 4 21.1419 4H21.1743ZM29.0712 13.3271H13.3521C12.6711 13.3271 10.3948 13.6019 9.74161 17.1291L8.54944 26.3947C8.16183 28.9937 8.46141 30.8746 9.44202 32.0127C10.4103 33.1369 12.1429 33.6836 14.7373 33.6836H27.6289C29.2473 33.6836 31.4571 33.3608 32.7913 31.8197C33.8507 30.5982 34.2152 28.779 33.8754 26.4116L32.6724 17.0657C32.1597 14.7632 30.807 13.3271 29.0712 13.3271ZM25.6781 17.6265C26.3175 17.6265 26.8719 18.1453 26.8719 18.7847C26.8719 19.424 26.3885 19.9429 25.7492 19.9429H25.6781C25.0388 19.9429 24.5199 19.424 24.5199 18.7847C24.5199 18.1453 25.0388 17.6265 25.6781 17.6265ZM16.6749 17.6265C17.3142 17.6265 17.8686 18.1453 17.8686 18.7847C17.8686 19.424 17.3837 19.9429 16.7444 19.9429H16.6749C16.0356 19.9429 15.5167 19.424 15.5167 18.7847C15.5167 18.1453 16.0356 17.6265 16.6749 17.6265ZM21.1697 6.3164H21.1465C19.6933 6.3164 18.2772 6.90168 17.2503 7.92244C16.4138 8.75521 15.8667 9.84999 15.6897 11.0099L26.622 11.0104C26.2252 8.35696 23.9306 6.3164 21.1697 6.3164Z" fill="black"/>
</svg>
