<svg width="41" height="40" viewBox="0 0 41 40" fill="none" xmlns="http://www.w3.org/2000/svg">
<path d="M20.478 4C24.7659 4 28.2911 7.36946 28.4701 11.6389H28.4283C28.4333 11.763 28.4094 11.8866 28.3586 12H28.6084C30.5556 12 32.5946 13.3496 33.4122 16.6077L33.501 16.9921L34.7313 26.9036C35.6166 33.2252 32.158 35.8837 27.44 35.9963L27.1236 36H13.8597C9.06491 36 5.37014 34.2528 6.18252 27.3337L6.23792 26.9036L7.48229 16.9921C8.09589 13.4835 10.1558 12.0996 12.1407 12.0052L12.3608 12H12.4859C12.4648 11.8806 12.4648 11.7584 12.4859 11.6389C12.6648 7.36946 16.1901 4 20.478 4ZM15.8253 17.3269C15.0443 17.3269 14.4112 17.9785 14.4112 18.7823C14.4112 19.5861 15.0443 20.2377 15.8253 20.2377C16.6062 20.2377 17.2393 19.5861 17.2393 18.7823L17.2283 18.5997C17.1411 17.8821 16.5462 17.3269 15.8253 17.3269ZM25.0874 17.3269C24.3064 17.3269 23.6733 17.9785 23.6733 18.7823C23.6733 19.5861 24.3064 20.2377 25.0874 20.2377C25.8683 20.2377 26.5014 19.5861 26.5014 18.7823C26.5014 17.9785 25.8683 17.3269 25.0874 17.3269ZM20.4153 6.08382C17.3367 6.08382 14.841 8.57092 14.841 11.6389C14.8621 11.7584 14.8621 11.8806 14.841 12H26.0592C26.0147 11.8847 25.9911 11.7624 25.9895 11.6389C25.9895 8.57092 23.4938 6.08382 20.4153 6.08382Z" fill="#5EDE99"/>
</svg>
