<svg width="41" height="40" viewBox="0 0 41 40" fill="none" xmlns="http://www.w3.org/2000/svg">
<path d="M28.5405 4C33.9821 4 37.0541 7.0864 37.0701 12.528V27.472C37.0701 32.912 33.9821 36 28.5405 36H13.5981C8.15647 36 5.07007 32.912 5.07007 27.472V12.528C5.07007 7.0864 8.15647 4 13.5981 4H28.5405ZM21.8701 10.608C21.4205 10.336 20.8765 10.336 20.4461 10.608C20.0125 10.8784 19.7741 11.376 19.8205 11.872V28.176C19.9021 28.864 20.4765 29.376 21.1485 29.376C21.8381 29.376 22.4125 28.864 22.4765 28.176V11.872C22.5405 11.376 22.3021 10.8784 21.8701 10.608ZM14.3981 15.856C13.9661 15.584 13.4205 15.584 12.9901 15.856C12.5565 16.128 12.3181 16.6224 12.3661 17.12V28.176C12.4285 28.864 13.0045 29.376 13.6925 29.376C14.3821 29.376 14.9565 28.864 15.0205 28.176V17.12C15.0701 16.6224 14.8285 16.128 14.3981 15.856ZM29.2125 21.664C28.7821 21.392 28.2381 21.392 27.7901 21.664C27.3565 21.936 27.1181 22.4144 27.1821 22.928V28.176C27.2461 28.864 27.8205 29.376 28.5101 29.376C29.1821 29.376 29.7565 28.864 29.8381 28.176V22.928C29.8845 22.4144 29.6461 21.936 29.2125 21.664Z" fill="#5EDE99"/>
</svg>
