<svg width="41" height="40" viewBox="0 0 41 40" fill="none" xmlns="http://www.w3.org/2000/svg">
<path d="M28.0141 4C33.4381 4 37.0701 7.808 37.0701 13.472V26.5456C37.0701 32.1936 33.4381 36 28.0141 36H14.1421C8.71807 36 5.07007 32.1936 5.07007 26.5456V13.472C5.07007 7.808 8.71807 4 14.1421 4H28.0141ZM25.8861 15.1536C25.3421 14.608 24.4621 14.608 23.9021 15.1536L21.0701 18L18.2221 15.1536C17.6621 14.608 16.7821 14.608 16.2381 15.1536C15.6941 15.6976 15.6941 16.5936 16.2381 17.136L19.0861 19.9856L16.2381 22.8176C15.6941 23.3776 15.6941 24.2576 16.2381 24.8C16.5101 25.072 16.8781 25.2176 17.2301 25.2176C17.5981 25.2176 17.9501 25.072 18.2221 24.8L21.0701 21.9696L23.9181 24.8C24.1901 25.0896 24.5421 25.2176 24.8941 25.2176C25.2621 25.2176 25.6141 25.072 25.8861 24.8C26.4301 24.2576 26.4301 23.3776 25.8861 22.8336L23.0381 19.9856L25.8861 17.136C26.4301 16.5936 26.4301 15.6976 25.8861 15.1536Z" fill="#F26666"/>
</svg>
