<svg width="41" height="40" viewBox="0 0 41 40" fill="none" xmlns="http://www.w3.org/2000/svg">
<path fill-rule="evenodd" clip-rule="evenodd" d="M21.1772 36.6667C18.9188 36.6667 16.7172 36.6417 14.5388 36.5967C11.7522 36.5417 9.82382 34.735 9.50882 31.8817C8.98382 27.1483 8.08548 15.9917 8.07715 15.88C8.02048 15.1917 8.53382 14.5883 9.22215 14.5333C9.90048 14.515 10.5138 14.9917 10.5688 15.6783C10.5772 15.7917 11.4738 26.91 11.9938 31.6067C12.1722 33.2283 13.0472 34.065 14.5905 34.0967C18.7572 34.185 23.0088 34.19 27.5922 34.1067C29.2322 34.075 30.1188 33.255 30.3022 31.595C30.8188 26.9383 31.7188 15.7917 31.7288 15.6783C31.7838 14.9917 32.3921 14.5117 33.0738 14.5333C33.7621 14.59 34.2755 15.1917 34.2205 15.88C34.2105 15.9933 33.3071 27.1783 32.7871 31.87C32.4638 34.7817 30.5405 36.5533 27.6372 36.6067C25.4155 36.645 23.2722 36.6667 21.1772 36.6667" fill="black"/>
<path fill-rule="evenodd" clip-rule="evenodd" d="M35.2794 11.6488H7.01611C6.32611 11.6488 5.76611 11.0888 5.76611 10.3988C5.76611 9.70883 6.32611 9.14883 7.01611 9.14883H35.2794C35.9694 9.14883 36.5294 9.70883 36.5294 10.3988C36.5294 11.0888 35.9694 11.6488 35.2794 11.6488" fill="black"/>
<path fill-rule="evenodd" clip-rule="evenodd" d="M29.8335 11.6488C27.9368 11.6488 26.2901 10.2972 25.9168 8.43717L25.5118 6.4105C25.4268 6.10217 25.0751 5.83383 24.6751 5.83383H17.6201C17.2201 5.83383 16.8685 6.10217 16.7668 6.48717L16.3785 8.43717C16.0068 10.2972 14.3585 11.6488 12.4618 11.6488C11.7718 11.6488 11.2118 11.0888 11.2118 10.3988C11.2118 9.70883 11.7718 9.14883 12.4618 9.14883C13.1718 9.14883 13.7885 8.64217 13.9285 7.9455L14.3335 5.91883C14.7451 4.3655 16.0901 3.33383 17.6201 3.33383H24.6751C26.2051 3.33383 27.5501 4.3655 27.9451 5.84383L28.3685 7.9455C28.5068 8.64217 29.1235 9.14883 29.8335 9.14883C30.5235 9.14883 31.0835 9.70883 31.0835 10.3988C31.0835 11.0888 30.5235 11.6488 29.8335 11.6488" fill="black"/>
</svg>
