<svg width="41" height="40" viewBox="0 0 41 40" fill="none" xmlns="http://www.w3.org/2000/svg">
<path d="M19.8382 12.6648V6.25041C19.8382 5.56837 20.3822 5 21.0702 5C21.6862 5 22.2081 5.47759 22.2908 6.08253L22.3022 6.25041V12.6648L29.9501 12.6653C33.7581 12.6653 36.8866 15.7836 37.0623 19.6727L37.0701 20.0177V28.0806C37.0701 31.9969 34.0503 35.2115 30.2989 35.392L29.9661 35.4H12.1741C8.36607 35.4 5.25261 32.2973 5.07781 28.394L5.07007 28.0476L5.07007 20.0012C5.07007 16.085 8.07472 12.8547 11.8253 12.6734L12.1581 12.6653H19.8381V22.9091L17.2781 20.2656C16.7981 19.7699 16.0141 19.7699 15.5341 20.2656C15.2941 20.5134 15.1821 20.8439 15.1821 21.1743C15.1821 21.4254 15.2537 21.6872 15.4053 21.9087L15.5341 22.0665L20.1901 26.891C20.4141 27.1388 20.7341 27.271 21.0701 27.271C21.3367 27.271 21.6034 27.1792 21.8145 27.0052L21.9341 26.891L26.5901 22.0665C27.0701 21.5708 27.0701 20.7612 26.5901 20.2656C26.1537 19.815 25.4661 19.774 24.9841 20.1427L24.8461 20.2656L22.3021 22.9091V12.6653L19.8382 12.6648Z" fill="#33D587"/>
</svg>
