<svg width="41" height="40" viewBox="0 0 41 40" fill="none" xmlns="http://www.w3.org/2000/svg">
<path fill-rule="evenodd" clip-rule="evenodd" d="M22.5051 25.2655C24.2966 25.2655 25.7549 26.7133 25.7549 28.493V33.0701C25.7549 33.4525 26.0614 33.7591 26.4542 33.768H29.2904C31.5254 33.768 33.3422 31.9734 33.3422 29.7682V16.7868C33.3318 16.0279 32.9702 15.3137 32.3497 14.839L22.5393 7.01508C21.2224 5.97198 19.3802 5.97198 18.0589 7.01805L8.31541 14.8361C7.67111 15.3256 7.30952 16.0399 7.30208 16.8121V29.7682C7.30208 31.9734 9.11894 33.768 11.3539 33.768H14.2169C14.6201 33.768 14.9475 33.4481 14.9475 33.0552C14.9475 32.9689 14.9579 32.8826 14.9757 32.8008V28.493C14.9757 26.7238 16.4251 25.2774 18.2032 25.2655H22.5051ZM29.2904 36H26.4275C24.7877 35.9613 23.5229 34.6742 23.5229 33.0701V28.493C23.5229 27.9439 23.066 27.4975 22.5051 27.4975H18.2107C17.6616 27.5005 17.2078 27.9484 17.2078 28.493V33.0552C17.2078 33.1668 17.1929 33.274 17.1616 33.3752C17.0009 34.8483 15.7421 36 14.2169 36H11.3539C7.88836 36 5.07007 33.204 5.07007 29.7682V16.8017C5.08495 15.3226 5.76646 13.9685 6.94347 13.0772L16.6676 5.27262C18.8088 3.57629 21.7923 3.57629 23.9291 5.26964L33.7232 13.0817C34.8734 13.9581 35.5549 15.3092 35.5742 16.7705V29.7682C35.5742 33.204 32.756 36 29.2904 36Z" fill="black"/>
</svg>
