<svg width="41" height="40" viewBox="0 0 41 40" fill="none" xmlns="http://www.w3.org/2000/svg">
<path d="M15.6857 34.0373V29.145C15.6857 27.8961 16.7055 26.8837 17.9636 26.8837H22.5622C23.1664 26.8837 23.7457 27.1219 24.1729 27.546C24.6001 27.9701 24.8401 28.5452 24.8401 29.145V34.0373C24.8363 34.5565 25.0414 35.0558 25.4098 35.4243C25.7783 35.7927 26.2797 36 26.8028 36H29.9402C31.4055 36.0037 32.8121 35.4285 33.8495 34.4013C34.887 33.374 35.47 31.9792 35.47 30.5245V16.587C35.47 15.4119 34.9454 14.2973 34.0374 13.5435L23.3645 5.08139C21.5079 3.5977 18.8478 3.6456 17.0467 5.19517L6.61729 13.5435C5.66645 14.2751 5.09815 15.393 5.07007 16.587V30.5103C5.07007 33.5421 7.54588 36 10.5999 36H13.6657C14.752 36 15.6349 35.1299 15.6427 34.0516L15.6857 34.0373Z" fill="#5EDE99"/>
</svg>
