<svg width="41" height="40" viewBox="0 0 41 40" fill="none" xmlns="http://www.w3.org/2000/svg">
<path fill-rule="evenodd" clip-rule="evenodd" d="M5.07007 20C5.07007 11.1696 12.2381 4 21.0701 4C29.9181 4 37.0701 11.1696 37.0701 20C37.0701 28.8336 29.9181 36 21.0701 36C12.2381 36 5.07007 28.8336 5.07007 20ZM19.6623 13.9361C19.6623 13.1697 20.3023 12.5281 21.0703 12.5281C21.8383 12.5281 22.4623 13.1697 22.4623 13.9361V21.0081C22.4623 21.7777 21.8383 22.4001 21.0703 22.4001C20.3023 22.4001 19.6623 21.7777 19.6623 21.0081V13.9361ZM21.0859 27.4896C20.3019 27.4896 19.6779 26.8496 19.6779 26.0816C19.6779 25.3136 20.3019 24.6896 21.0699 24.6896C21.8539 24.6896 22.4779 25.3136 22.4779 26.0816C22.4779 26.8496 21.8539 27.4896 21.0859 27.4896Z" fill="#F26666"/>
</svg>
