<svg width="41" height="40" viewBox="0 0 41 40" fill="none" xmlns="http://www.w3.org/2000/svg">
<path fill-rule="evenodd" clip-rule="evenodd" d="M29.5166 12.6336V15.087C32.1508 15.9471 34.0701 18.4418 34.0701 21.4214V29.3205C34.0701 33.0092 31.1468 36 27.5429 36H14.5988C10.9933 36 8.07007 33.0092 8.07007 29.3205V21.4214C8.07007 18.4418 9.99093 15.9471 12.6236 15.087V12.6336C12.6391 7.86366 16.4156 4 21.0468 4C25.7401 4 29.5166 7.86366 29.5166 12.6336ZM21.0777 6.78246C24.2325 6.78246 26.7967 9.40593 26.7967 12.6336V14.7419H15.3431V12.6018C15.3586 9.39003 17.9229 6.78246 21.0777 6.78246ZM22.4297 27.1279C22.4297 27.907 21.8236 28.5271 21.0621 28.5271C20.3161 28.5271 19.71 27.907 19.71 27.1279V23.5981C19.71 22.8349 20.3161 22.2148 21.0621 22.2148C21.8236 22.2148 22.4297 22.8349 22.4297 23.5981V27.1279Z" fill="#33CBD5"/>
</svg>
