<svg width="41" height="40" viewBox="0 0 41 40" fill="none" xmlns="http://www.w3.org/2000/svg">
<path d="M17.6883 4C21.5113 4 24.6292 7.184 24.6292 11.104V18.768H15.2285C14.5547 18.768 14.022 19.312 14.022 20C14.022 20.672 14.5547 21.232 15.2285 21.232H24.6292V28.88C24.6292 32.8 21.5113 36 17.657 36H10.0267C6.1881 36 3.07019 32.816 3.07019 28.896V11.12C3.07019 7.184 6.20376 4 10.0424 4H17.6883ZM28.5409 14.4803C29.0029 13.9843 29.7574 13.9843 30.2194 14.4643L34.716 19.1203C34.947 19.3603 35.0702 19.6643 35.0702 20.0003C35.0702 20.3203 34.947 20.6403 34.716 20.8643L30.2194 25.5203C29.9884 25.7603 29.6804 25.8883 29.3879 25.8883C29.0799 25.8883 28.7719 25.7603 28.5409 25.5203C28.0789 25.0403 28.0789 24.2563 28.5409 23.7763L31.0048 21.2323H24.6295V18.7683H31.0048L28.5409 16.2243C28.0789 15.7443 28.0789 14.9603 28.5409 14.4803Z" fill="#F26666"/>
</svg>
