<svg width="41" height="40" viewBox="0 0 41 40" fill="none" xmlns="http://www.w3.org/2000/svg">
<path fill-rule="evenodd" clip-rule="evenodd" d="M31.2225 14.8741C31.2225 16.8836 31.7497 18.068 32.9099 19.4329C33.7891 20.4385 34.0701 21.7293 34.0701 23.1296C34.0701 24.5284 33.6139 25.8562 32.6999 26.9343C31.5035 28.2267 29.816 29.0517 28.0939 29.1952C25.5983 29.4095 23.1012 29.59 20.5709 29.59C18.039 29.59 15.5434 29.482 13.0478 29.1952C11.3241 29.0517 9.63669 28.2267 8.44177 26.9343C7.52783 25.8562 7.07007 24.5284 7.07007 23.1296C7.07007 21.7293 7.35262 20.4385 8.23026 19.4329C9.42675 18.068 9.91924 16.8836 9.91924 14.8741V14.1925C9.91924 11.5013 10.5854 9.74163 11.9571 8.01898C13.9965 5.50671 17.2655 4 20.4998 4H20.6419C23.9457 4 27.3205 5.57923 29.3251 8.19946C30.6258 9.88666 31.2225 11.5722 31.2225 14.1925V14.8741ZM15.9225 32.8973C15.9225 32.0916 16.6565 31.7226 17.3352 31.5647C18.1292 31.3955 22.9673 31.3955 23.7612 31.5647C24.44 31.7226 25.174 32.0916 25.174 32.8973C25.1345 33.6644 24.6878 34.3444 24.0706 34.7763C23.2703 35.4048 22.3311 35.8028 21.3493 35.9462C20.8063 36.0171 20.2728 36.0187 19.7487 35.9462C18.7653 35.8028 17.8261 35.4048 17.0274 34.7747C16.4086 34.3444 15.9619 33.6644 15.9225 32.8973Z" fill="#EFBE24"/>
</svg>
