<svg width="41" height="40" viewBox="0 0 41 40" fill="none" xmlns="http://www.w3.org/2000/svg">
<path fill-rule="evenodd" clip-rule="evenodd" d="M17.9714 32.4368C18.7423 33.2956 19.7321 33.7674 20.7591 33.7674H20.7606C21.792 33.7674 22.7862 33.2956 23.5587 32.4353C23.9725 31.9784 24.678 31.9412 25.1349 32.3535C25.5933 32.7658 25.6305 33.4727 25.2182 33.9297C24.0156 35.2647 22.4335 36 20.7606 36H20.7576C19.0891 35.9985 17.51 35.2633 16.3118 33.9282C15.8996 33.4713 15.9368 32.7643 16.3952 32.3535C16.8536 31.9397 17.5591 31.9769 17.9714 32.4368ZM20.8332 4C27.449 4 31.8933 9.15274 31.8933 13.9647C31.8933 16.4398 32.5229 17.4891 33.1912 18.6024C33.852 19.7008 34.6006 20.9481 34.6006 23.3057C34.0812 29.3291 27.7928 29.8203 20.8332 29.8203C13.8736 29.8203 7.58372 29.3291 7.07021 23.4009C7.06576 20.9481 7.81442 19.7008 8.47525 18.6024L8.70855 18.2097C9.28295 17.2225 9.77311 16.1486 9.77311 13.9647C9.77311 9.15274 14.2174 4 20.8332 4ZM20.8332 6.23256C15.6313 6.23256 12.0057 10.3077 12.0057 13.9647C12.0057 17.059 11.1469 18.4893 10.3878 19.7514C9.77907 20.765 9.29832 21.5658 9.29832 23.3057C9.54688 26.1127 11.3999 27.5877 20.8332 27.5877C30.2144 27.5877 32.1255 26.0473 32.3726 23.2089C32.3681 21.5658 31.8873 20.765 31.2786 19.7514C30.5195 18.4893 29.6607 17.059 29.6607 13.9647C29.6607 10.3077 26.0351 6.23256 20.8332 6.23256Z" fill="black"/>
</svg>
