<svg width="41" height="40" viewBox="0 0 41 40" fill="none" xmlns="http://www.w3.org/2000/svg">
<path d="M22.8536 3.3333C23.2827 3.3333 23.6127 3.6833 23.6127 4.09996V9.46663C23.6127 12.5166 26.1044 15.0166 29.1242 15.0333C30.3784 15.0333 31.3685 15.05 32.1275 15.05C32.6391 15.05 33.4807 15.0333 34.1902 15.0333C34.6028 15.0333 34.9328 15.3666 34.9328 15.7833V29.1833C34.9328 33.3166 31.616 36.6666 27.5071 36.6666H14.3883C10.0978 36.6666 6.59949 33.15 6.59949 28.8166V10.85C6.59949 6.71663 9.93282 3.3333 14.0417 3.3333H22.8536ZM24.5368 20.4H16.385C15.7084 20.4 15.1473 20.95 15.1473 21.65C15.1473 22.3333 15.7084 22.8833 16.385 22.8833H24.5368C25.2134 22.8833 25.7744 22.3333 25.7744 21.65C25.7744 20.95 25.2134 20.4 24.5368 20.4ZM26.0155 4.84363C26.0155 4.1253 26.8785 3.76863 27.3719 4.28696C29.1558 6.1603 32.2729 9.4353 34.0155 11.2653C34.4973 11.7703 34.1442 12.6086 33.4495 12.6103C32.0931 12.6153 30.494 12.6103 29.3439 12.5986C27.5188 12.5986 26.0155 11.0803 26.0155 9.23696V4.84363Z" fill="#5EDE99"/>
</svg>
