<svg width="41" height="40" viewBox="0 0 41 40" fill="none" xmlns="http://www.w3.org/2000/svg">
<path fill-rule="evenodd" clip-rule="evenodd" d="M12.9832 3.33351H28.5332C34.1999 3.33351 37.4332 6.53351 37.4332 12.2168V27.7835C37.4332 33.4335 34.2165 36.6668 28.5499 36.6668H12.9832C7.29985 36.6668 4.09985 33.4335 4.09985 27.7835V12.2168C4.09985 6.53351 7.29985 3.33351 12.9832 3.33351ZM22.1332 21.3835H26.8665C27.6332 21.3668 28.2499 20.7502 28.2499 19.9835C28.2499 19.2168 27.6332 18.6002 26.8665 18.6002H22.1332V13.9002C22.1332 13.1335 21.5165 12.5168 20.7499 12.5168C19.9832 12.5168 19.3665 13.1335 19.3665 13.9002V18.6002H14.6499C14.2832 18.6002 13.9332 18.7502 13.6665 19.0002C13.4165 19.2668 13.2665 19.6152 13.2665 19.9835C13.2665 20.7502 13.8832 21.3668 14.6499 21.3835H19.3665V26.1002C19.3665 26.8668 19.9832 27.4835 20.7499 27.4835C21.5165 27.4835 22.1332 26.8668 22.1332 26.1002V21.3835Z" fill="#33D587"/>
</svg>
