<svg width="41" height="40" viewBox="0 0 41 40" fill="none" xmlns="http://www.w3.org/2000/svg">
<path fill-rule="evenodd" clip-rule="evenodd" d="M33.5794 30.0784C33.5794 35.3864 26.3002 36 20.8263 36L20.4346 35.9997C16.9471 35.9912 8.07007 35.771 8.07007 30.0462C8.07007 24.8465 15.0567 24.1516 20.4889 24.1255L21.218 24.125C24.7053 24.1335 33.5794 24.3536 33.5794 30.0784ZM20.8263 26.5403C13.9643 26.5403 10.4857 27.7191 10.4857 30.0462C10.4857 32.3942 13.9643 33.5843 20.8263 33.5843C27.6868 33.5843 31.1637 32.4055 31.1637 30.0784C31.1637 27.7304 27.6868 26.5403 20.8263 26.5403ZM20.8263 4C25.5417 4 29.3761 7.83606 29.3761 12.5514C29.3761 17.2668 25.5417 21.1012 20.8263 21.1012H20.7748C16.0691 21.0867 12.2572 17.2491 12.2733 12.5466C12.2733 7.83606 16.1094 4 20.8263 4ZM20.8263 6.2997C17.3784 6.2997 14.573 9.10347 14.573 12.5514C14.5617 15.9881 17.3462 18.7902 20.7796 18.8031L20.8263 19.953V18.8031C24.2727 18.8031 27.0764 15.9977 27.0764 12.5514C27.0764 9.10347 24.2727 6.2997 20.8263 6.2997Z" fill="black"/>
</svg>
