<svg width="41" height="40" viewBox="0 0 41 40" fill="none" xmlns="http://www.w3.org/2000/svg">
<path fill-rule="evenodd" clip-rule="evenodd" d="M21.0703 7.46158C20.9209 7.46158 20.5533 7.50261 20.3581 7.89318L17.3615 13.8847C16.8872 14.8316 15.9732 15.4896 14.9163 15.6406L8.20768 16.6072C7.76459 16.6712 7.61361 16.9994 7.56767 17.1372C7.52664 17.2702 7.461 17.6082 7.76623 17.9003L12.6172 22.5609C13.3901 23.3043 13.7413 24.3759 13.5575 25.4246L12.4153 32.0052C12.3448 32.4171 12.6024 32.6567 12.7173 32.7388C12.8387 32.8307 13.1637 33.0128 13.5657 32.8028L19.5638 29.693C20.509 29.2056 21.6348 29.2056 22.5768 29.693L28.5732 32.8011C28.9769 33.0095 29.3018 32.8274 29.4249 32.7388C29.5398 32.6567 29.7974 32.4171 29.7268 32.0052L28.5814 25.4246C28.3976 24.3759 28.7488 23.3043 29.5217 22.5609L34.3727 17.9003C34.6795 17.6082 34.6139 17.2685 34.5712 17.1372C34.5269 16.9994 34.376 16.6712 33.9329 16.6072L27.2242 15.6406C26.169 15.4896 25.255 14.8316 24.7807 13.883L21.7808 7.89318C21.5872 7.50261 21.2196 7.46158 21.0703 7.46158M13.1882 35.3595C12.5105 35.3595 11.8376 35.1462 11.2616 34.7261C10.2672 33.9975 9.77976 32.7946 9.99146 31.5835L11.1336 25.0028C11.1763 24.7583 11.0926 24.5105 10.9121 24.3366L6.06113 19.676C5.16839 18.821 4.84839 17.5574 5.22583 16.384C5.60656 15.1975 6.61416 14.3491 7.85644 14.1719L14.5651 13.2053C14.8244 13.1692 15.0475 13.01 15.1591 12.7835L18.1573 6.79039C18.7104 5.68596 19.8263 5 21.0702 5V5C22.3141 5 23.4301 5.68596 23.9831 6.79039L26.9829 12.7819C27.0962 13.01 27.3177 13.1692 27.5754 13.2053L34.284 14.1719C35.5263 14.3491 36.5339 15.1975 36.9146 16.384C37.2921 17.5574 36.9704 18.821 36.0777 19.676L31.2267 24.3366C31.0462 24.5105 30.9641 24.7583 31.0068 25.0012L32.1506 31.5835C32.3607 32.7962 31.8733 33.9991 30.8772 34.7261C29.8679 35.4662 28.5534 35.5663 27.4392 34.9854L21.4444 31.8789C21.2097 31.7574 20.9291 31.7574 20.6944 31.8789L14.6996 34.987C14.2205 35.2365 13.7035 35.3595 13.1882 35.3595" fill="black"/>
</svg>
