<svg width="41" height="40" viewBox="0 0 41 40" fill="none" xmlns="http://www.w3.org/2000/svg">
<path d="M28.0141 4C33.4381 4 37.0701 7.808 37.0701 13.472V26.5456C37.0701 32.192 33.4381 36 28.0141 36H14.1421C8.71807 36 5.07007 32.192 5.07007 26.5456V13.472C5.07007 7.808 8.71807 4 14.1421 4H28.0141ZM27.7581 15.2C27.2141 14.656 26.3181 14.656 25.7741 15.2L19.1661 21.808L16.3661 19.008C15.8221 18.464 14.9261 18.464 14.3821 19.008C13.8381 19.552 13.8381 20.432 14.3821 20.992L18.1901 24.784C18.4621 25.056 18.8141 25.184 19.1661 25.184C19.5341 25.184 19.8861 25.056 20.1581 24.784L27.7581 17.184C28.3021 16.64 28.3021 15.76 27.7581 15.2Z" fill="#5EDE99"/>
</svg>
