<svg width="41" height="40" viewBox="0 0 41 40" fill="none" xmlns="http://www.w3.org/2000/svg">
<path d="M21.0701 4C29.9181 4 37.0701 11.168 37.0701 20C37.0701 28.848 29.9181 36 21.0701 36C12.2381 36 5.07007 28.848 5.07007 20C5.07007 11.168 12.2381 4 21.0701 4ZM20.5101 11.888C19.8541 11.888 19.3101 12.416 19.3101 13.088V21.168C19.3101 21.584 19.5341 21.968 19.9021 22.192L26.1741 25.936C26.3661 26.048 26.5741 26.112 26.7981 26.112C27.1981 26.112 27.5981 25.904 27.8221 25.52C28.1581 24.96 27.9821 24.224 27.4061 23.872L21.7101 20.48V13.088C21.7101 12.416 21.1661 11.888 20.5101 11.888Z" fill="#EFBE24"/>
</svg>
