<svg width="41" height="40" viewBox="0 0 41 40" fill="none" xmlns="http://www.w3.org/2000/svg">
<path fill-rule="evenodd" clip-rule="evenodd" d="M30.381 11.5676H37.4328C37.4328 5.52817 34.0402 2 28.2921 2H13.2402C7.49208 2 4.09949 5.52817 4.09949 11.4906V24.5094C4.09949 30.4718 7.49208 34 13.2402 34H28.2921C34.0402 34 37.4328 30.4718 37.4328 24.5094V23.9547H30.381C27.1082 23.9547 24.455 21.1956 24.455 17.792C24.455 14.3884 27.1082 11.6293 30.381 11.6293V11.5676ZM30.3809 14.2176H36.1883C36.8756 14.2176 37.4328 14.797 37.4328 15.5117V20.0105C37.4248 20.7218 36.8723 21.2964 36.1883 21.3047H30.5142C28.8574 21.3279 27.4086 20.1482 27.0328 18.4698C26.8446 17.428 27.1088 16.3529 27.7545 15.5328C28.4003 14.7126 29.3617 14.2312 30.3809 14.2176ZM30.6327 18.9474H31.1809C31.8845 18.9474 32.4549 18.3542 32.4549 17.6225C32.4549 16.8907 31.8845 16.2975 31.1809 16.2975H30.6327C30.2962 16.2934 29.9721 16.4295 29.7327 16.6755C29.4933 16.9216 29.3586 17.257 29.3586 17.6071C29.3586 18.3414 29.9267 18.939 30.6327 18.9474ZM11.9958 11.5676H21.4032C22.1068 11.5676 22.6772 10.9744 22.6772 10.2426C22.6772 9.51086 22.1068 8.91764 21.4032 8.91764H11.9958C11.2978 8.91759 10.7298 9.50148 10.7217 10.2272C10.7216 10.9615 11.2897 11.5592 11.9958 11.5676Z" fill="#BD66F2"/>
</svg>
