<svg width="270" height="96" viewBox="0 0 270 96" fill="none" xmlns="http://www.w3.org/2000/svg">
<path d="M86.2588 16.84C86.9554 16.84 87.4386 17.5344 87.1965 18.1876L64.7458 78.7556C64.6005 79.1478 64.2264 79.408 63.8082 79.408H57.2118C56.7877 79.408 56.4097 79.1405 56.2687 78.7404L47.7606 54.6C47.1338 52.8215 44.6195 52.8191 43.9893 54.5964L35.4281 78.7422C35.2866 79.1413 34.909 79.408 34.4856 79.408H27.8653C27.4583 79.408 27.0918 79.1613 26.9387 78.7842L16.5587 53.2162C16.2917 52.5586 16.7756 51.84 17.4852 51.84H25.5036C25.9102 51.84 26.2763 52.0862 26.4297 52.4627L29.6768 60.4315C30.372 62.1377 32.8089 62.076 33.4169 60.3368L42.4458 34.51C42.5861 34.1088 42.9647 33.84 43.3898 33.84H48.9375C49.3668 33.84 49.7483 34.1141 49.8853 34.521L58.583 60.3552C59.1868 62.1488 61.7131 62.1782 62.3585 60.3991L77.9209 17.499C78.0644 17.1034 78.4402 16.84 78.861 16.84H86.2588Z" fill="#5EDE99"/>
<path d="M119.424 57.056L111.328 79.84H107.328L102.016 64.768L96.672 79.84H92.672L84.576 57.056H89.664L94.912 72.8L100.416 57.056H103.904L109.28 73.024L114.656 57.056H119.424Z" fill="#152C07"/>
<path d="M121.983 63.616H126.815V79.84H121.983V63.616ZM126.975 56V60.544H121.823V56H126.975Z" fill="#152C07"/>
<path d="M136.972 80.096C133.9 80.096 131.479 79.4347 129.708 78.112L130.988 74.752C131.842 75.3707 132.791 75.8507 133.836 76.192C134.882 76.512 135.948 76.672 137.036 76.672C137.868 76.672 138.508 76.544 138.956 76.288C139.404 76.032 139.628 75.6587 139.628 75.168C139.628 74.7627 139.468 74.4427 139.148 74.208C138.828 73.9733 138.263 73.7707 137.452 73.6L134.796 72.992C133.239 72.6507 132.087 72.1067 131.34 71.36C130.615 70.6133 130.252 69.6213 130.252 68.384C130.252 67.3813 130.54 66.4853 131.116 65.696C131.714 64.9067 132.535 64.2987 133.58 63.872C134.626 63.424 135.831 63.2 137.196 63.2C138.348 63.2 139.479 63.3813 140.588 63.744C141.698 64.0853 142.69 64.576 143.564 65.216L142.22 68.448C141.388 67.872 140.535 67.4347 139.66 67.136C138.807 66.8373 137.975 66.688 137.164 66.688C136.375 66.688 135.756 66.8267 135.308 67.104C134.86 67.3813 134.636 67.7653 134.636 68.256C134.636 68.6187 134.764 68.9173 135.02 69.152C135.298 69.3653 135.778 69.5467 136.46 69.696L139.18 70.304C140.844 70.688 142.05 71.264 142.796 72.032C143.543 72.8 143.916 73.824 143.916 75.104C143.916 76.64 143.298 77.856 142.06 78.752C140.823 79.648 139.127 80.096 136.972 80.096Z" fill="#152C07"/>
<path d="M161.418 72.128H150.73C150.816 73.6427 151.21 74.752 151.914 75.456C152.618 76.1387 153.664 76.48 155.05 76.48C155.882 76.48 156.714 76.3413 157.546 76.064C158.378 75.7867 159.146 75.3813 159.85 74.848L161.13 78.112C160.362 78.7307 159.402 79.2213 158.25 79.584C157.12 79.9253 155.978 80.096 154.826 80.096C152.096 80.096 149.952 79.3493 148.394 77.856C146.837 76.3413 146.058 74.2827 146.058 71.68C146.058 70.0373 146.389 68.576 147.05 67.296C147.733 65.9947 148.682 64.992 149.898 64.288C151.114 63.5627 152.49 63.2 154.026 63.2C156.309 63.2 158.112 63.9467 159.434 65.44C160.757 66.912 161.418 68.9067 161.418 71.424V72.128ZM154.154 66.592C153.237 66.592 152.49 66.8587 151.914 67.392C151.36 67.9253 150.997 68.704 150.826 69.728H157.258C157.002 67.6373 155.968 66.592 154.154 66.592Z" fill="#152C07"/>
<path d="M172.132 80.096C169.487 80.096 167.407 79.3493 165.892 77.856C164.399 76.3627 163.652 74.3253 163.652 71.744C163.652 70.0587 164.015 68.576 164.74 67.296C165.465 65.9947 166.479 64.992 167.78 64.288C169.103 63.5627 170.628 63.2 172.356 63.2C173.529 63.2 174.671 63.3813 175.78 63.744C176.889 64.1067 177.775 64.5973 178.436 65.216L177.156 68.576C176.516 68.064 175.812 67.6693 175.044 67.392C174.276 67.0933 173.529 66.944 172.804 66.944C171.481 66.944 170.447 67.3493 169.7 68.16C168.975 68.9493 168.612 70.112 168.612 71.648C168.612 73.2053 168.975 74.3893 169.7 75.2C170.425 75.9893 171.46 76.384 172.804 76.384C173.529 76.384 174.276 76.2453 175.044 75.968C175.812 75.6693 176.516 75.264 177.156 74.752L178.436 78.112C177.732 78.7307 176.815 79.2213 175.684 79.584C174.553 79.9253 173.369 80.096 172.132 80.096Z" fill="#152C07"/>
<path d="M190.173 63.232C190.856 63.232 191.432 63.3387 191.901 63.552L191.869 67.968C191.08 67.6053 190.291 67.424 189.501 67.424C188.221 67.424 187.24 67.776 186.557 68.48C185.896 69.1627 185.565 70.1227 185.565 71.36V79.84H180.733V68.256C180.733 66.528 180.648 64.9813 180.477 63.616H185.021L185.341 66.4C185.747 65.376 186.376 64.5973 187.229 64.064C188.104 63.5093 189.085 63.232 190.173 63.232Z" fill="#152C07"/>
<path d="M210.827 63.616L203.339 80.704C202.422 82.7733 201.259 84.288 199.851 85.248C198.464 86.2293 196.758 86.8587 194.731 87.136L193.611 83.424C195.104 83.104 196.224 82.6987 196.971 82.208C197.739 81.7173 198.336 81.0027 198.763 80.064L199.243 79.008L192.555 63.616H197.611L201.771 74.144L206.059 63.616H210.827Z" fill="#152C07"/>
<path d="M222.341 63.2C223.727 63.2 224.965 63.5627 226.053 64.288C227.141 64.992 227.983 65.9947 228.581 67.296C229.199 68.5973 229.509 70.08 229.509 71.744C229.509 73.408 229.21 74.88 228.613 76.16C228.015 77.4187 227.173 78.3893 226.085 79.072C224.997 79.7547 223.749 80.096 222.341 80.096C221.21 80.096 220.197 79.8613 219.301 79.392C218.405 78.9227 217.722 78.272 217.253 77.44V86.752H212.421V68.256C212.421 66.528 212.335 64.9813 212.165 63.616H216.709L217.029 66.304C217.455 65.344 218.138 64.5867 219.077 64.032C220.037 63.4773 221.125 63.2 222.341 63.2ZM220.965 76.416C222.159 76.416 223.077 76.0213 223.717 75.232C224.357 74.4213 224.677 73.2587 224.677 71.744C224.677 70.2293 224.346 69.0453 223.685 68.192C223.045 67.3387 222.138 66.912 220.965 66.912C219.77 66.912 218.842 67.328 218.181 68.16C217.541 68.9707 217.221 70.144 217.221 71.68C217.221 73.216 217.541 74.3893 218.181 75.2C218.842 76.0107 219.77 76.416 220.965 76.416Z" fill="#152C07"/>
<path d="M238.532 67.232V73.536C238.532 74.432 238.767 75.0933 239.236 75.52C239.705 75.9253 240.313 76.128 241.06 76.128C241.529 76.128 242.063 76.0533 242.66 75.904V79.648C241.892 79.9467 240.964 80.096 239.876 80.096C237.871 80.096 236.335 79.5307 235.268 78.4C234.223 77.2693 233.7 75.68 233.7 73.632V67.232H230.628V63.616H233.7V59.808L238.532 58.24V63.616H242.66V67.232H238.532Z" fill="#152C07"/>
<path d="M252.883 80.096C251.155 80.096 249.641 79.7547 248.339 79.072C247.059 78.3893 246.067 77.408 245.363 76.128C244.681 74.848 244.339 73.3547 244.339 71.648C244.339 69.9413 244.681 68.448 245.363 67.168C246.067 65.888 247.059 64.9067 248.339 64.224C249.641 63.5413 251.155 63.2 252.883 63.2C254.59 63.2 256.083 63.5413 257.363 64.224C258.643 64.9067 259.625 65.888 260.307 67.168C261.011 68.448 261.363 69.9413 261.363 71.648C261.363 73.3547 261.011 74.848 260.307 76.128C259.625 77.408 258.643 78.3893 257.363 79.072C256.083 79.7547 254.59 80.096 252.883 80.096ZM252.883 76.416C254.078 76.416 254.985 76.0213 255.603 75.232C256.243 74.4427 256.563 73.248 256.563 71.648C256.563 70.0693 256.243 68.8853 255.603 68.096C254.985 67.2853 254.078 66.88 252.883 66.88C251.667 66.88 250.739 67.2853 250.099 68.096C249.459 68.8853 249.139 70.0693 249.139 71.648C249.139 74.8267 250.387 76.416 252.883 76.416Z" fill="#152C07"/>
</svg>
