<svg width="270" height="96" viewBox="0 0 270 96" fill="none" xmlns="http://www.w3.org/2000/svg">
<path d="M0 4.704C0 2.49487 1.79086 0.70401 4 0.70401H265.696C267.905 0.70401 269.696 2.49487 269.696 4.70401V91.272C269.696 93.4812 267.905 95.272 265.696 95.272H3.99999C1.79085 95.272 0 93.4811 0 91.272V4.704Z" fill="#04150C"/>
<path d="M86.2588 16.704C86.9554 16.704 87.4386 17.3984 87.1965 18.0515L64.7458 78.6195C64.6005 79.0117 64.2264 79.272 63.8082 79.272H57.2118C56.7877 79.272 56.4097 79.0044 56.2687 78.6044L47.7606 54.4639C47.1338 52.6855 44.6195 52.6831 43.9893 54.4604L35.4281 78.6062C35.2866 79.0053 34.909 79.272 34.4856 79.272H27.8653C27.4583 79.272 27.0918 79.0253 26.9387 78.6481L16.5587 53.0801C16.2917 52.4226 16.7756 51.704 17.4852 51.704H25.5036C25.9102 51.704 26.2763 51.9501 26.4297 52.3266L29.6768 60.2955C30.372 62.0016 32.8089 61.9399 33.4169 60.2008L42.4458 34.374C42.5861 33.9727 42.9647 33.704 43.3898 33.704H48.9375C49.3668 33.704 49.7483 33.978 49.8853 34.3849L58.583 60.2192C59.1868 62.0128 61.7131 62.0422 62.3585 60.2631L77.9209 17.363C78.0644 16.9674 78.4402 16.704 78.861 16.704H86.2588Z" fill="white"/>
<path d="M119.424 56.92L111.328 79.704H107.328L102.016 64.632L96.672 79.704H92.672L84.576 56.92H89.664L94.912 72.664L100.416 56.92H103.904L109.28 72.888L114.656 56.92H119.424Z" fill="white"/>
<path d="M121.983 63.48H126.815V79.704H121.983V63.48ZM126.975 55.864V60.408H121.823V55.864H126.975Z" fill="white"/>
<path d="M136.972 79.96C133.9 79.96 131.479 79.2987 129.708 77.976L130.988 74.616C131.842 75.2347 132.791 75.7147 133.836 76.056C134.882 76.376 135.948 76.536 137.036 76.536C137.868 76.536 138.508 76.408 138.956 76.152C139.404 75.896 139.628 75.5227 139.628 75.032C139.628 74.6267 139.468 74.3067 139.148 74.072C138.828 73.8373 138.263 73.6347 137.452 73.464L134.796 72.856C133.239 72.5147 132.087 71.9707 131.34 71.224C130.615 70.4773 130.252 69.4853 130.252 68.248C130.252 67.2453 130.54 66.3493 131.116 65.56C131.714 64.7707 132.535 64.1627 133.58 63.736C134.626 63.288 135.831 63.064 137.196 63.064C138.348 63.064 139.479 63.2453 140.588 63.608C141.698 63.9493 142.69 64.44 143.564 65.08L142.22 68.312C141.388 67.736 140.535 67.2987 139.66 67C138.807 66.7013 137.975 66.552 137.164 66.552C136.375 66.552 135.756 66.6907 135.308 66.968C134.86 67.2453 134.636 67.6293 134.636 68.12C134.636 68.4827 134.764 68.7813 135.02 69.016C135.298 69.2293 135.778 69.4107 136.46 69.56L139.18 70.168C140.844 70.552 142.05 71.128 142.796 71.896C143.543 72.664 143.916 73.688 143.916 74.968C143.916 76.504 143.298 77.72 142.06 78.616C140.823 79.512 139.127 79.96 136.972 79.96Z" fill="white"/>
<path d="M161.418 71.992H150.73C150.816 73.5067 151.21 74.616 151.914 75.32C152.618 76.0027 153.664 76.344 155.05 76.344C155.882 76.344 156.714 76.2053 157.546 75.928C158.378 75.6507 159.146 75.2453 159.85 74.712L161.13 77.976C160.362 78.5947 159.402 79.0853 158.25 79.448C157.12 79.7893 155.978 79.96 154.826 79.96C152.096 79.96 149.952 79.2133 148.394 77.72C146.837 76.2053 146.058 74.1467 146.058 71.544C146.058 69.9013 146.389 68.44 147.05 67.16C147.733 65.8587 148.682 64.856 149.898 64.152C151.114 63.4267 152.49 63.064 154.026 63.064C156.309 63.064 158.112 63.8107 159.434 65.304C160.757 66.776 161.418 68.7707 161.418 71.288V71.992ZM154.154 66.456C153.237 66.456 152.49 66.7227 151.914 67.256C151.36 67.7893 150.997 68.568 150.826 69.592H157.258C157.002 67.5013 155.968 66.456 154.154 66.456Z" fill="white"/>
<path d="M172.132 79.96C169.487 79.96 167.407 79.2133 165.892 77.72C164.399 76.2267 163.652 74.1893 163.652 71.608C163.652 69.9227 164.015 68.44 164.74 67.16C165.465 65.8587 166.479 64.856 167.78 64.152C169.103 63.4267 170.628 63.064 172.356 63.064C173.529 63.064 174.671 63.2453 175.78 63.608C176.889 63.9707 177.775 64.4613 178.436 65.08L177.156 68.44C176.516 67.928 175.812 67.5333 175.044 67.256C174.276 66.9573 173.529 66.808 172.804 66.808C171.481 66.808 170.447 67.2133 169.7 68.024C168.975 68.8133 168.612 69.976 168.612 71.512C168.612 73.0693 168.975 74.2533 169.7 75.064C170.425 75.8533 171.46 76.248 172.804 76.248C173.529 76.248 174.276 76.1093 175.044 75.832C175.812 75.5333 176.516 75.128 177.156 74.616L178.436 77.976C177.732 78.5947 176.815 79.0853 175.684 79.448C174.553 79.7893 173.369 79.96 172.132 79.96Z" fill="white"/>
<path d="M190.173 63.096C190.856 63.096 191.432 63.2027 191.901 63.416L191.869 67.832C191.08 67.4693 190.291 67.288 189.501 67.288C188.221 67.288 187.24 67.64 186.557 68.344C185.896 69.0267 185.565 69.9867 185.565 71.224V79.704H180.733V68.12C180.733 66.392 180.648 64.8453 180.477 63.48H185.021L185.341 66.264C185.747 65.24 186.376 64.4613 187.229 63.928C188.104 63.3733 189.085 63.096 190.173 63.096Z" fill="white"/>
<path d="M210.827 63.48L203.339 80.568C202.422 82.6373 201.259 84.152 199.851 85.112C198.464 86.0933 196.758 86.7227 194.731 87L193.611 83.288C195.104 82.968 196.224 82.5627 196.971 82.072C197.739 81.5813 198.336 80.8667 198.763 79.928L199.243 78.872L192.555 63.48H197.611L201.771 74.008L206.059 63.48H210.827Z" fill="white"/>
<path d="M222.341 63.064C223.727 63.064 224.965 63.4267 226.053 64.152C227.141 64.856 227.983 65.8587 228.581 67.16C229.199 68.4613 229.509 69.944 229.509 71.608C229.509 73.272 229.21 74.744 228.613 76.024C228.015 77.2827 227.173 78.2533 226.085 78.936C224.997 79.6187 223.749 79.96 222.341 79.96C221.21 79.96 220.197 79.7253 219.301 79.256C218.405 78.7867 217.722 78.136 217.253 77.304V86.616H212.421V68.12C212.421 66.392 212.335 64.8453 212.165 63.48H216.709L217.029 66.168C217.455 65.208 218.138 64.4507 219.077 63.896C220.037 63.3413 221.125 63.064 222.341 63.064ZM220.965 76.28C222.159 76.28 223.077 75.8853 223.717 75.096C224.357 74.2853 224.677 73.1227 224.677 71.608C224.677 70.0933 224.346 68.9093 223.685 68.056C223.045 67.2027 222.138 66.776 220.965 66.776C219.77 66.776 218.842 67.192 218.181 68.024C217.541 68.8347 217.221 70.008 217.221 71.544C217.221 73.08 217.541 74.2533 218.181 75.064C218.842 75.8747 219.77 76.28 220.965 76.28Z" fill="white"/>
<path d="M238.532 67.096V73.4C238.532 74.296 238.767 74.9573 239.236 75.384C239.705 75.7893 240.313 75.992 241.06 75.992C241.529 75.992 242.063 75.9173 242.66 75.768V79.512C241.892 79.8107 240.964 79.96 239.876 79.96C237.871 79.96 236.335 79.3947 235.268 78.264C234.223 77.1333 233.7 75.544 233.7 73.496V67.096H230.628V63.48H233.7V59.672L238.532 58.104V63.48H242.66V67.096H238.532Z" fill="white"/>
<path d="M252.883 79.96C251.155 79.96 249.641 79.6187 248.339 78.936C247.059 78.2533 246.067 77.272 245.363 75.992C244.681 74.712 244.339 73.2187 244.339 71.512C244.339 69.8053 244.681 68.312 245.363 67.032C246.067 65.752 247.059 64.7707 248.339 64.088C249.641 63.4053 251.155 63.064 252.883 63.064C254.59 63.064 256.083 63.4053 257.363 64.088C258.643 64.7707 259.625 65.752 260.307 67.032C261.011 68.312 261.363 69.8053 261.363 71.512C261.363 73.2187 261.011 74.712 260.307 75.992C259.625 77.272 258.643 78.2533 257.363 78.936C256.083 79.6187 254.59 79.96 252.883 79.96ZM252.883 76.28C254.078 76.28 254.985 75.8853 255.603 75.096C256.243 74.3067 256.563 73.112 256.563 71.512C256.563 69.9333 256.243 68.7493 255.603 67.96C254.985 67.1493 254.078 66.744 252.883 66.744C251.667 66.744 250.739 67.1493 250.099 67.96C249.459 68.7493 249.139 69.9333 249.139 71.512C249.139 74.6907 250.387 76.28 252.883 76.28Z" fill="white"/>
</svg>
