<svg width="270" height="95" viewBox="0 0 270 95" fill="none" xmlns="http://www.w3.org/2000/svg">
<path d="M0 4.27197C0 2.06283 1.79086 0.271973 4 0.271973H265.696C267.905 0.271973 269.696 2.06283 269.696 4.27197V90.84C269.696 93.0491 267.905 94.84 265.696 94.84H3.99999C1.79085 94.84 0 93.0491 0 90.84V4.27197Z" fill="#F7F7F7"/>
<path d="M86.2588 16.272C86.9554 16.272 87.4386 16.9664 87.1965 17.6195L64.7458 78.1875C64.6005 78.5797 64.2264 78.84 63.8082 78.84H57.2118C56.7877 78.84 56.4097 78.5724 56.2687 78.1724L47.7606 54.0319C47.1338 52.2534 44.6195 52.2511 43.9893 54.0284L35.4281 78.1742C35.2866 78.5733 34.909 78.84 34.4856 78.84H27.8653C27.4583 78.84 27.0918 78.5933 26.9387 78.2161L16.5587 52.6481C16.2917 51.9906 16.7756 51.272 17.4852 51.272H25.5036C25.9102 51.272 26.2763 51.5181 26.4297 51.8946L29.6768 59.8634C30.372 61.5696 32.8089 61.5079 33.4169 59.7688L42.4458 33.942C42.5861 33.5407 42.9647 33.272 43.3898 33.272H48.9375C49.3668 33.272 49.7483 33.546 49.8853 33.9529L58.583 59.7872C59.1868 61.5808 61.7131 61.6102 62.3585 59.831L77.9209 16.931C78.0644 16.5354 78.4402 16.272 78.861 16.272H86.2588Z" fill="#5EDE99"/>
<path d="M119.424 56.4879L111.328 79.2719H107.328L102.016 64.1999L96.672 79.2719H92.672L84.576 56.4879H89.664L94.912 72.2319L100.416 56.4879H103.904L109.28 72.4559L114.656 56.4879H119.424Z" fill="#5EDE99"/>
<path d="M121.983 63.0479H126.815V79.2719H121.983V63.0479ZM126.975 55.4319V59.9759H121.823V55.4319H126.975Z" fill="#5EDE99"/>
<path d="M136.972 79.5279C133.9 79.5279 131.479 78.8666 129.708 77.5439L130.988 74.1839C131.842 74.8026 132.791 75.2826 133.836 75.6239C134.882 75.9439 135.948 76.1039 137.036 76.1039C137.868 76.1039 138.508 75.9759 138.956 75.7199C139.404 75.4639 139.628 75.0906 139.628 74.5999C139.628 74.1946 139.468 73.8746 139.148 73.6399C138.828 73.4053 138.263 73.2026 137.452 73.0319L134.796 72.4239C133.239 72.0826 132.087 71.5386 131.34 70.7919C130.615 70.0453 130.252 69.0533 130.252 67.8159C130.252 66.8133 130.54 65.9173 131.116 65.1279C131.714 64.3386 132.535 63.7306 133.58 63.3039C134.626 62.8559 135.831 62.6319 137.196 62.6319C138.348 62.6319 139.479 62.8133 140.588 63.1759C141.698 63.5173 142.69 64.0079 143.564 64.6479L142.22 67.8799C141.388 67.3039 140.535 66.8666 139.66 66.5679C138.807 66.2693 137.975 66.1199 137.164 66.1199C136.375 66.1199 135.756 66.2586 135.308 66.5359C134.86 66.8133 134.636 67.1973 134.636 67.6879C134.636 68.0506 134.764 68.3493 135.02 68.5839C135.298 68.7973 135.778 68.9786 136.46 69.1279L139.18 69.7359C140.844 70.1199 142.05 70.6959 142.796 71.4639C143.543 72.2319 143.916 73.2559 143.916 74.5359C143.916 76.0719 143.298 77.2879 142.06 78.1839C140.823 79.0799 139.127 79.5279 136.972 79.5279Z" fill="#5EDE99"/>
<path d="M161.418 71.5599H150.73C150.816 73.0746 151.21 74.1839 151.914 74.8879C152.618 75.5706 153.664 75.9119 155.05 75.9119C155.882 75.9119 156.714 75.7733 157.546 75.4959C158.378 75.2186 159.146 74.8133 159.85 74.2799L161.13 77.5439C160.362 78.1626 159.402 78.6533 158.25 79.0159C157.12 79.3573 155.978 79.5279 154.826 79.5279C152.096 79.5279 149.952 78.7813 148.394 77.2879C146.837 75.7733 146.058 73.7146 146.058 71.1119C146.058 69.4693 146.389 68.0079 147.05 66.7279C147.733 65.4266 148.682 64.4239 149.898 63.7199C151.114 62.9946 152.49 62.6319 154.026 62.6319C156.309 62.6319 158.112 63.3786 159.434 64.8719C160.757 66.3439 161.418 68.3386 161.418 70.8559V71.5599ZM154.154 66.0239C153.237 66.0239 152.49 66.2906 151.914 66.8239C151.36 67.3573 150.997 68.1359 150.826 69.1599H157.258C157.002 67.0693 155.968 66.0239 154.154 66.0239Z" fill="#5EDE99"/>
<path d="M172.132 79.5279C169.487 79.5279 167.407 78.7813 165.892 77.2879C164.399 75.7946 163.652 73.7573 163.652 71.1759C163.652 69.4906 164.015 68.0079 164.74 66.7279C165.465 65.4266 166.479 64.4239 167.78 63.7199C169.103 62.9946 170.628 62.6319 172.356 62.6319C173.529 62.6319 174.671 62.8133 175.78 63.1759C176.889 63.5386 177.775 64.0293 178.436 64.6479L177.156 68.0079C176.516 67.4959 175.812 67.1013 175.044 66.8239C174.276 66.5253 173.529 66.3759 172.804 66.3759C171.481 66.3759 170.447 66.7813 169.7 67.5919C168.975 68.3813 168.612 69.5439 168.612 71.0799C168.612 72.6373 168.975 73.8213 169.7 74.6319C170.425 75.4213 171.46 75.8159 172.804 75.8159C173.529 75.8159 174.276 75.6773 175.044 75.3999C175.812 75.1013 176.516 74.6959 177.156 74.1839L178.436 77.5439C177.732 78.1626 176.815 78.6533 175.684 79.0159C174.553 79.3573 173.369 79.5279 172.132 79.5279Z" fill="#5EDE99"/>
<path d="M190.173 62.6639C190.856 62.6639 191.432 62.7706 191.901 62.9839L191.869 67.3999C191.08 67.0373 190.291 66.8559 189.501 66.8559C188.221 66.8559 187.24 67.2079 186.557 67.9119C185.896 68.5946 185.565 69.5546 185.565 70.7919V79.2719H180.733V67.6879C180.733 65.9599 180.648 64.4133 180.477 63.0479H185.021L185.341 65.8319C185.747 64.8079 186.376 64.0293 187.229 63.4959C188.104 62.9413 189.085 62.6639 190.173 62.6639Z" fill="#5EDE99"/>
<path d="M210.827 63.0479L203.339 80.1359C202.422 82.2053 201.259 83.7199 199.851 84.6799C198.464 85.6613 196.758 86.2906 194.731 86.5679L193.611 82.8559C195.104 82.5359 196.224 82.1306 196.971 81.6399C197.739 81.1493 198.336 80.4346 198.763 79.4959L199.243 78.4399L192.555 63.0479H197.611L201.771 73.5759L206.059 63.0479H210.827Z" fill="#5EDE99"/>
<path d="M222.341 62.6319C223.727 62.6319 224.965 62.9946 226.053 63.7199C227.141 64.4239 227.983 65.4266 228.581 66.7279C229.199 68.0293 229.509 69.5119 229.509 71.1759C229.509 72.8399 229.21 74.3119 228.613 75.5919C228.015 76.8506 227.173 77.8213 226.085 78.5039C224.997 79.1866 223.749 79.5279 222.341 79.5279C221.21 79.5279 220.197 79.2933 219.301 78.8239C218.405 78.3546 217.722 77.7039 217.253 76.8719V86.1839H212.421V67.6879C212.421 65.9599 212.335 64.4133 212.165 63.0479H216.709L217.029 65.7359C217.455 64.7759 218.138 64.0186 219.077 63.4639C220.037 62.9093 221.125 62.6319 222.341 62.6319ZM220.965 75.8479C222.159 75.8479 223.077 75.4533 223.717 74.6639C224.357 73.8533 224.677 72.6906 224.677 71.1759C224.677 69.6613 224.346 68.4773 223.685 67.6239C223.045 66.7706 222.138 66.3439 220.965 66.3439C219.77 66.3439 218.842 66.7599 218.181 67.5919C217.541 68.4026 217.221 69.5759 217.221 71.1119C217.221 72.6479 217.541 73.8213 218.181 74.6319C218.842 75.4426 219.77 75.8479 220.965 75.8479Z" fill="#5EDE99"/>
<path d="M238.532 66.6639V72.9679C238.532 73.8639 238.767 74.5253 239.236 74.9519C239.705 75.3573 240.313 75.5599 241.06 75.5599C241.529 75.5599 242.063 75.4853 242.66 75.3359V79.0799C241.892 79.3786 240.964 79.5279 239.876 79.5279C237.871 79.5279 236.335 78.9626 235.268 77.8319C234.223 76.7013 233.7 75.1119 233.7 73.0639V66.6639H230.628V63.0479H233.7V59.2399L238.532 57.6719V63.0479H242.66V66.6639H238.532Z" fill="#5EDE99"/>
<path d="M252.883 79.5279C251.155 79.5279 249.641 79.1866 248.339 78.5039C247.059 77.8213 246.067 76.8399 245.363 75.5599C244.681 74.2799 244.339 72.7866 244.339 71.0799C244.339 69.3733 244.681 67.8799 245.363 66.5999C246.067 65.3199 247.059 64.3386 248.339 63.6559C249.641 62.9733 251.155 62.6319 252.883 62.6319C254.59 62.6319 256.083 62.9733 257.363 63.6559C258.643 64.3386 259.625 65.3199 260.307 66.5999C261.011 67.8799 261.363 69.3733 261.363 71.0799C261.363 72.7866 261.011 74.2799 260.307 75.5599C259.625 76.8399 258.643 77.8213 257.363 78.5039C256.083 79.1866 254.59 79.5279 252.883 79.5279ZM252.883 75.8479C254.078 75.8479 254.985 75.4533 255.603 74.6639C256.243 73.8746 256.563 72.6799 256.563 71.0799C256.563 69.5013 256.243 68.3173 255.603 67.5279C254.985 66.7173 254.078 66.3119 252.883 66.3119C251.667 66.3119 250.739 66.7173 250.099 67.5279C249.459 68.3173 249.139 69.5013 249.139 71.0799C249.139 74.2586 250.387 75.8479 252.883 75.8479Z" fill="#5EDE99"/>
</svg>
