<svg width="270" height="95" viewBox="0 0 270 95" fill="none" xmlns="http://www.w3.org/2000/svg">
<path d="M86.2588 16C86.9554 16 87.4386 16.6944 87.1965 17.3476L64.7458 77.9156C64.6005 78.3077 64.2264 78.568 63.8082 78.568H57.2118C56.7877 78.568 56.4097 78.3004 56.2687 77.9004L47.7606 53.76C47.1338 51.9815 44.6195 51.9791 43.9893 53.7564L35.4281 77.9022C35.2866 78.3013 34.909 78.568 34.4856 78.568H27.8653C27.4583 78.568 27.0918 78.3213 26.9387 77.9442L16.5587 52.3762C16.2917 51.7186 16.7756 51 17.4852 51H25.5036C25.9102 51 26.2763 51.2461 26.4297 51.6227L29.6768 59.5915C30.372 61.2976 32.8089 61.236 33.4169 59.4968L42.4458 33.67C42.5861 33.2687 42.9647 33 43.3898 33H48.9375C49.3668 33 49.7483 33.274 49.8853 33.6809L58.583 59.5152C59.1868 61.3088 61.7131 61.3382 62.3585 59.5591L77.9209 16.659C78.0644 16.2634 78.4402 16 78.861 16H86.2588Z" fill="#5EDE99"/>
<path d="M119.424 56.216L111.328 79H107.328L102.016 63.928L96.672 79H92.672L84.576 56.216H89.664L94.912 71.96L100.416 56.216H103.904L109.28 72.184L114.656 56.216H119.424Z" fill="#152C07"/>
<path d="M121.983 62.776H126.815V79H121.983V62.776ZM126.975 55.16V59.704H121.823V55.16H126.975Z" fill="#152C07"/>
<path d="M136.972 79.256C133.9 79.256 131.479 78.5947 129.708 77.272L130.988 73.912C131.842 74.5307 132.791 75.0107 133.836 75.352C134.882 75.672 135.948 75.832 137.036 75.832C137.868 75.832 138.508 75.704 138.956 75.448C139.404 75.192 139.628 74.8187 139.628 74.328C139.628 73.9227 139.468 73.6027 139.148 73.368C138.828 73.1333 138.263 72.9307 137.452 72.76L134.796 72.152C133.239 71.8107 132.087 71.2667 131.34 70.52C130.615 69.7733 130.252 68.7813 130.252 67.544C130.252 66.5413 130.54 65.6453 131.116 64.856C131.714 64.0667 132.535 63.4587 133.58 63.032C134.626 62.584 135.831 62.36 137.196 62.36C138.348 62.36 139.479 62.5413 140.588 62.904C141.698 63.2453 142.69 63.736 143.564 64.376L142.22 67.608C141.388 67.032 140.535 66.5947 139.66 66.296C138.807 65.9973 137.975 65.848 137.164 65.848C136.375 65.848 135.756 65.9867 135.308 66.264C134.86 66.5413 134.636 66.9253 134.636 67.416C134.636 67.7787 134.764 68.0773 135.02 68.312C135.298 68.5253 135.778 68.7067 136.46 68.856L139.18 69.464C140.844 69.848 142.05 70.424 142.796 71.192C143.543 71.96 143.916 72.984 143.916 74.264C143.916 75.8 143.298 77.016 142.06 77.912C140.823 78.808 139.127 79.256 136.972 79.256Z" fill="#152C07"/>
<path d="M161.418 71.288H150.73C150.816 72.8027 151.21 73.912 151.914 74.616C152.618 75.2987 153.664 75.64 155.05 75.64C155.882 75.64 156.714 75.5013 157.546 75.224C158.378 74.9467 159.146 74.5413 159.85 74.008L161.13 77.272C160.362 77.8907 159.402 78.3813 158.25 78.744C157.12 79.0853 155.978 79.256 154.826 79.256C152.096 79.256 149.952 78.5093 148.394 77.016C146.837 75.5013 146.058 73.4427 146.058 70.84C146.058 69.1973 146.389 67.736 147.05 66.456C147.733 65.1547 148.682 64.152 149.898 63.448C151.114 62.7227 152.49 62.36 154.026 62.36C156.309 62.36 158.112 63.1067 159.434 64.6C160.757 66.072 161.418 68.0667 161.418 70.584V71.288ZM154.154 65.752C153.237 65.752 152.49 66.0187 151.914 66.552C151.36 67.0853 150.997 67.864 150.826 68.888H157.258C157.002 66.7973 155.968 65.752 154.154 65.752Z" fill="#152C07"/>
<path d="M172.132 79.256C169.487 79.256 167.407 78.5093 165.892 77.016C164.399 75.5227 163.652 73.4853 163.652 70.904C163.652 69.2187 164.015 67.736 164.74 66.456C165.465 65.1547 166.479 64.152 167.78 63.448C169.103 62.7227 170.628 62.36 172.356 62.36C173.529 62.36 174.671 62.5413 175.78 62.904C176.889 63.2667 177.775 63.7573 178.436 64.376L177.156 67.736C176.516 67.224 175.812 66.8293 175.044 66.552C174.276 66.2533 173.529 66.104 172.804 66.104C171.481 66.104 170.447 66.5093 169.7 67.32C168.975 68.1093 168.612 69.272 168.612 70.808C168.612 72.3653 168.975 73.5493 169.7 74.36C170.425 75.1493 171.46 75.544 172.804 75.544C173.529 75.544 174.276 75.4053 175.044 75.128C175.812 74.8293 176.516 74.424 177.156 73.912L178.436 77.272C177.732 77.8907 176.815 78.3813 175.684 78.744C174.553 79.0853 173.369 79.256 172.132 79.256Z" fill="#152C07"/>
<path d="M190.173 62.392C190.856 62.392 191.432 62.4987 191.901 62.712L191.869 67.128C191.08 66.7653 190.291 66.584 189.501 66.584C188.221 66.584 187.24 66.936 186.557 67.64C185.896 68.3227 185.565 69.2827 185.565 70.52V79H180.733V67.416C180.733 65.688 180.648 64.1413 180.477 62.776H185.021L185.341 65.56C185.747 64.536 186.376 63.7573 187.229 63.224C188.104 62.6693 189.085 62.392 190.173 62.392Z" fill="#152C07"/>
<path d="M210.827 62.776L203.339 79.864C202.422 81.9333 201.259 83.448 199.851 84.408C198.464 85.3893 196.758 86.0187 194.731 86.296L193.611 82.584C195.104 82.264 196.224 81.8587 196.971 81.368C197.739 80.8773 198.336 80.1627 198.763 79.224L199.243 78.168L192.555 62.776H197.611L201.771 73.304L206.059 62.776H210.827Z" fill="#152C07"/>
<path d="M222.341 62.36C223.727 62.36 224.965 62.7227 226.053 63.448C227.141 64.152 227.983 65.1547 228.581 66.456C229.199 67.7573 229.509 69.24 229.509 70.904C229.509 72.568 229.21 74.04 228.613 75.32C228.015 76.5787 227.173 77.5493 226.085 78.232C224.997 78.9147 223.749 79.256 222.341 79.256C221.21 79.256 220.197 79.0213 219.301 78.552C218.405 78.0827 217.722 77.432 217.253 76.6V85.912H212.421V67.416C212.421 65.688 212.335 64.1413 212.165 62.776H216.709L217.029 65.464C217.455 64.504 218.138 63.7467 219.077 63.192C220.037 62.6373 221.125 62.36 222.341 62.36ZM220.965 75.576C222.159 75.576 223.077 75.1813 223.717 74.392C224.357 73.5813 224.677 72.4187 224.677 70.904C224.677 69.3893 224.346 68.2053 223.685 67.352C223.045 66.4987 222.138 66.072 220.965 66.072C219.77 66.072 218.842 66.488 218.181 67.32C217.541 68.1307 217.221 69.304 217.221 70.84C217.221 72.376 217.541 73.5493 218.181 74.36C218.842 75.1707 219.77 75.576 220.965 75.576Z" fill="#152C07"/>
<path d="M238.532 66.392V72.696C238.532 73.592 238.767 74.2533 239.236 74.68C239.705 75.0853 240.313 75.288 241.06 75.288C241.529 75.288 242.063 75.2133 242.66 75.064V78.808C241.892 79.1067 240.964 79.256 239.876 79.256C237.871 79.256 236.335 78.6907 235.268 77.56C234.223 76.4293 233.7 74.84 233.7 72.792V66.392H230.628V62.776H233.7V58.968L238.532 57.4V62.776H242.66V66.392H238.532Z" fill="#152C07"/>
<path d="M252.883 79.256C251.155 79.256 249.641 78.9147 248.339 78.232C247.059 77.5493 246.067 76.568 245.363 75.288C244.681 74.008 244.339 72.5147 244.339 70.808C244.339 69.1013 244.681 67.608 245.363 66.328C246.067 65.048 247.059 64.0667 248.339 63.384C249.641 62.7013 251.155 62.36 252.883 62.36C254.59 62.36 256.083 62.7013 257.363 63.384C258.643 64.0667 259.625 65.048 260.307 66.328C261.011 67.608 261.363 69.1013 261.363 70.808C261.363 72.5147 261.011 74.008 260.307 75.288C259.625 76.568 258.643 77.5493 257.363 78.232C256.083 78.9147 254.59 79.256 252.883 79.256ZM252.883 75.576C254.078 75.576 254.985 75.1813 255.603 74.392C256.243 73.6027 256.563 72.408 256.563 70.808C256.563 69.2293 256.243 68.0453 255.603 67.256C254.985 66.4453 254.078 66.04 252.883 66.04C251.667 66.04 250.739 66.4453 250.099 67.256C249.459 68.0453 249.139 69.2293 249.139 70.808C249.139 73.9867 250.387 75.576 252.883 75.576Z" fill="#152C07"/>
</svg>
