<svg width="270" height="96" viewBox="0 0 270 96" fill="none" xmlns="http://www.w3.org/2000/svg">
<path d="M0 4.56799C0 2.35885 1.79086 0.567993 4 0.567993H265.696C267.905 0.567993 269.696 2.35885 269.696 4.56799V91.136C269.696 93.3451 267.905 95.136 265.696 95.136H3.99999C1.79085 95.136 0 93.3451 0 91.136V4.56799Z" fill="#5EDE99"/>
<path d="M86.2588 16.568C86.9554 16.568 87.4386 17.2624 87.1965 17.9156L64.7458 78.4836C64.6005 78.8757 64.2264 79.136 63.8082 79.136H57.2118C56.7877 79.136 56.4097 78.8684 56.2687 78.4684L47.7606 54.328C47.1338 52.5495 44.6195 52.5471 43.9893 54.3244L35.4281 78.4702C35.2866 78.8693 34.909 79.136 34.4856 79.136H27.8653C27.4583 79.136 27.0918 78.8893 26.9387 78.5122L16.5587 52.9442C16.2917 52.2866 16.7756 51.568 17.4852 51.568H25.5036C25.9102 51.568 26.2763 51.8141 26.4297 52.1906L29.6768 60.1595C30.372 61.8656 32.8089 61.8039 33.4169 60.0648L42.4458 34.238C42.5861 33.8367 42.9647 33.568 43.3898 33.568H48.9375C49.3668 33.568 49.7483 33.842 49.8853 34.2489L58.583 60.0832C59.1868 61.8768 61.7131 61.9062 62.3585 60.1271L77.9209 17.227C78.0644 16.8314 78.4402 16.568 78.861 16.568H86.2588Z" fill="white"/>
<path d="M119.424 56.784L111.328 79.568H107.328L102.016 64.496L96.672 79.568H92.672L84.576 56.784H89.664L94.912 72.528L100.416 56.784H103.904L109.28 72.752L114.656 56.784H119.424Z" fill="white"/>
<path d="M121.983 63.344H126.815V79.568H121.983V63.344ZM126.975 55.728V60.272H121.823V55.728H126.975Z" fill="white"/>
<path d="M136.972 79.824C133.9 79.824 131.479 79.1627 129.708 77.84L130.988 74.48C131.842 75.0987 132.791 75.5787 133.836 75.92C134.882 76.24 135.948 76.4 137.036 76.4C137.868 76.4 138.508 76.272 138.956 76.016C139.404 75.76 139.628 75.3867 139.628 74.896C139.628 74.4907 139.468 74.1707 139.148 73.936C138.828 73.7013 138.263 73.4987 137.452 73.328L134.796 72.72C133.239 72.3787 132.087 71.8347 131.34 71.088C130.615 70.3413 130.252 69.3493 130.252 68.112C130.252 67.1093 130.54 66.2133 131.116 65.424C131.714 64.6347 132.535 64.0267 133.58 63.6C134.626 63.152 135.831 62.928 137.196 62.928C138.348 62.928 139.479 63.1093 140.588 63.472C141.698 63.8133 142.69 64.304 143.564 64.944L142.22 68.176C141.388 67.6 140.535 67.1627 139.66 66.864C138.807 66.5653 137.975 66.416 137.164 66.416C136.375 66.416 135.756 66.5547 135.308 66.832C134.86 67.1093 134.636 67.4933 134.636 67.984C134.636 68.3467 134.764 68.6453 135.02 68.88C135.298 69.0933 135.778 69.2747 136.46 69.424L139.18 70.032C140.844 70.416 142.05 70.992 142.796 71.76C143.543 72.528 143.916 73.552 143.916 74.832C143.916 76.368 143.298 77.584 142.06 78.48C140.823 79.376 139.127 79.824 136.972 79.824Z" fill="white"/>
<path d="M161.418 71.856H150.73C150.816 73.3707 151.21 74.48 151.914 75.184C152.618 75.8667 153.664 76.208 155.05 76.208C155.882 76.208 156.714 76.0693 157.546 75.792C158.378 75.5147 159.146 75.1093 159.85 74.576L161.13 77.84C160.362 78.4587 159.402 78.9493 158.25 79.312C157.12 79.6533 155.978 79.824 154.826 79.824C152.096 79.824 149.952 79.0773 148.394 77.584C146.837 76.0693 146.058 74.0107 146.058 71.408C146.058 69.7653 146.389 68.304 147.05 67.024C147.733 65.7227 148.682 64.72 149.898 64.016C151.114 63.2907 152.49 62.928 154.026 62.928C156.309 62.928 158.112 63.6747 159.434 65.168C160.757 66.64 161.418 68.6347 161.418 71.152V71.856ZM154.154 66.32C153.237 66.32 152.49 66.5867 151.914 67.12C151.36 67.6533 150.997 68.432 150.826 69.456H157.258C157.002 67.3653 155.968 66.32 154.154 66.32Z" fill="white"/>
<path d="M172.132 79.824C169.487 79.824 167.407 79.0773 165.892 77.584C164.399 76.0907 163.652 74.0533 163.652 71.472C163.652 69.7867 164.015 68.304 164.74 67.024C165.465 65.7227 166.479 64.72 167.78 64.016C169.103 63.2907 170.628 62.928 172.356 62.928C173.529 62.928 174.671 63.1093 175.78 63.472C176.889 63.8347 177.775 64.3253 178.436 64.944L177.156 68.304C176.516 67.792 175.812 67.3973 175.044 67.12C174.276 66.8213 173.529 66.672 172.804 66.672C171.481 66.672 170.447 67.0773 169.7 67.888C168.975 68.6773 168.612 69.84 168.612 71.376C168.612 72.9333 168.975 74.1173 169.7 74.928C170.425 75.7173 171.46 76.112 172.804 76.112C173.529 76.112 174.276 75.9733 175.044 75.696C175.812 75.3973 176.516 74.992 177.156 74.48L178.436 77.84C177.732 78.4587 176.815 78.9493 175.684 79.312C174.553 79.6533 173.369 79.824 172.132 79.824Z" fill="white"/>
<path d="M190.173 62.96C190.856 62.96 191.432 63.0667 191.901 63.28L191.869 67.696C191.08 67.3333 190.291 67.152 189.501 67.152C188.221 67.152 187.24 67.504 186.557 68.208C185.896 68.8907 185.565 69.8507 185.565 71.088V79.568H180.733V67.984C180.733 66.256 180.648 64.7093 180.477 63.344H185.021L185.341 66.128C185.747 65.104 186.376 64.3253 187.229 63.792C188.104 63.2373 189.085 62.96 190.173 62.96Z" fill="white"/>
<path d="M210.827 63.344L203.339 80.432C202.422 82.5013 201.259 84.016 199.851 84.976C198.464 85.9573 196.758 86.5867 194.731 86.864L193.611 83.152C195.104 82.832 196.224 82.4267 196.971 81.936C197.739 81.4453 198.336 80.7307 198.763 79.792L199.243 78.736L192.555 63.344H197.611L201.771 73.872L206.059 63.344H210.827Z" fill="white"/>
<path d="M222.341 62.928C223.727 62.928 224.965 63.2907 226.053 64.016C227.141 64.72 227.983 65.7227 228.581 67.024C229.199 68.3253 229.509 69.808 229.509 71.472C229.509 73.136 229.21 74.608 228.613 75.888C228.015 77.1467 227.173 78.1173 226.085 78.8C224.997 79.4827 223.749 79.824 222.341 79.824C221.21 79.824 220.197 79.5893 219.301 79.12C218.405 78.6507 217.722 78 217.253 77.168V86.48H212.421V67.984C212.421 66.256 212.335 64.7093 212.165 63.344H216.709L217.029 66.032C217.455 65.072 218.138 64.3147 219.077 63.76C220.037 63.2053 221.125 62.928 222.341 62.928ZM220.965 76.144C222.159 76.144 223.077 75.7493 223.717 74.96C224.357 74.1493 224.677 72.9867 224.677 71.472C224.677 69.9573 224.346 68.7733 223.685 67.92C223.045 67.0667 222.138 66.64 220.965 66.64C219.77 66.64 218.842 67.056 218.181 67.888C217.541 68.6987 217.221 69.872 217.221 71.408C217.221 72.944 217.541 74.1173 218.181 74.928C218.842 75.7387 219.77 76.144 220.965 76.144Z" fill="white"/>
<path d="M238.532 66.96V73.264C238.532 74.16 238.767 74.8213 239.236 75.248C239.705 75.6533 240.313 75.856 241.06 75.856C241.529 75.856 242.063 75.7813 242.66 75.632V79.376C241.892 79.6747 240.964 79.824 239.876 79.824C237.871 79.824 236.335 79.2587 235.268 78.128C234.223 76.9973 233.7 75.408 233.7 73.36V66.96H230.628V63.344H233.7V59.536L238.532 57.968V63.344H242.66V66.96H238.532Z" fill="white"/>
<path d="M252.883 79.824C251.155 79.824 249.641 79.4827 248.339 78.8C247.059 78.1173 246.067 77.136 245.363 75.856C244.681 74.576 244.339 73.0827 244.339 71.376C244.339 69.6693 244.681 68.176 245.363 66.896C246.067 65.616 247.059 64.6347 248.339 63.952C249.641 63.2693 251.155 62.928 252.883 62.928C254.59 62.928 256.083 63.2693 257.363 63.952C258.643 64.6347 259.625 65.616 260.307 66.896C261.011 68.176 261.363 69.6693 261.363 71.376C261.363 73.0827 261.011 74.576 260.307 75.856C259.625 77.136 258.643 78.1173 257.363 78.8C256.083 79.4827 254.59 79.824 252.883 79.824ZM252.883 76.144C254.078 76.144 254.985 75.7493 255.603 74.96C256.243 74.1707 256.563 72.976 256.563 71.376C256.563 69.7973 256.243 68.6133 255.603 67.824C254.985 67.0133 254.078 66.608 252.883 66.608C251.667 66.608 250.739 67.0133 250.099 67.824C249.459 68.6133 249.139 69.7973 249.139 71.376C249.139 74.5547 250.387 76.144 252.883 76.144Z" fill="white"/>
</svg>
