<svg width="270" height="95" viewBox="0 0 270 95" fill="none" xmlns="http://www.w3.org/2000/svg">
<path d="M0 4.13598C0 1.92684 1.79086 0.135986 4 0.135986H265.696C267.905 0.135986 269.696 1.92685 269.696 4.13599V90.704C269.696 92.9131 267.905 94.704 265.696 94.704H3.99999C1.79085 94.704 0 92.9131 0 90.704V4.13598Z" fill="#F288F4"/>
<path d="M86.2588 16.136C86.9554 16.136 87.4386 16.8304 87.1965 17.4835L64.7458 78.0515C64.6005 78.4437 64.2264 78.704 63.8082 78.704H57.2118C56.7877 78.704 56.4097 78.4364 56.2687 78.0364L47.7606 53.8959C47.1338 52.1175 44.6195 52.1151 43.9893 53.8924L35.4281 78.0382C35.2866 78.4373 34.909 78.704 34.4856 78.704H27.8653C27.4583 78.704 27.0918 78.4573 26.9387 78.0801L16.5587 52.5121C16.2917 51.8546 16.7756 51.136 17.4852 51.136H25.5036C25.9102 51.136 26.2763 51.3821 26.4297 51.7586L29.6768 59.7275C30.372 61.4336 32.8089 61.3719 33.4169 59.6328L42.4458 33.806C42.5861 33.4047 42.9647 33.136 43.3898 33.136H48.9375C49.3668 33.136 49.7483 33.41 49.8853 33.8169L58.583 59.6512C59.1868 61.4448 61.7131 61.4742 62.3585 59.6951L77.9209 16.795C78.0644 16.3994 78.4402 16.136 78.861 16.136H86.2588Z" fill="white"/>
<path d="M119.424 56.352L111.328 79.136H107.328L102.016 64.064L96.672 79.136H92.672L84.576 56.352H89.664L94.912 72.096L100.416 56.352H103.904L109.28 72.32L114.656 56.352H119.424Z" fill="white"/>
<path d="M121.983 62.912H126.815V79.136H121.983V62.912ZM126.975 55.296V59.84H121.823V55.296H126.975Z" fill="white"/>
<path d="M136.972 79.392C133.9 79.392 131.479 78.7307 129.708 77.408L130.988 74.048C131.842 74.6667 132.791 75.1467 133.836 75.488C134.882 75.808 135.948 75.968 137.036 75.968C137.868 75.968 138.508 75.84 138.956 75.584C139.404 75.328 139.628 74.9547 139.628 74.464C139.628 74.0587 139.468 73.7387 139.148 73.504C138.828 73.2693 138.263 73.0667 137.452 72.896L134.796 72.288C133.239 71.9467 132.087 71.4027 131.34 70.656C130.615 69.9093 130.252 68.9173 130.252 67.68C130.252 66.6773 130.54 65.7813 131.116 64.992C131.714 64.2027 132.535 63.5947 133.58 63.168C134.626 62.72 135.831 62.496 137.196 62.496C138.348 62.496 139.479 62.6773 140.588 63.04C141.698 63.3813 142.69 63.872 143.564 64.512L142.22 67.744C141.388 67.168 140.535 66.7307 139.66 66.432C138.807 66.1333 137.975 65.984 137.164 65.984C136.375 65.984 135.756 66.1227 135.308 66.4C134.86 66.6773 134.636 67.0613 134.636 67.552C134.636 67.9147 134.764 68.2133 135.02 68.448C135.298 68.6613 135.778 68.8427 136.46 68.992L139.18 69.6C140.844 69.984 142.05 70.56 142.796 71.328C143.543 72.096 143.916 73.12 143.916 74.4C143.916 75.936 143.298 77.152 142.06 78.048C140.823 78.944 139.127 79.392 136.972 79.392Z" fill="white"/>
<path d="M161.418 71.424H150.73C150.816 72.9387 151.21 74.048 151.914 74.752C152.618 75.4347 153.664 75.776 155.05 75.776C155.882 75.776 156.714 75.6373 157.546 75.36C158.378 75.0827 159.146 74.6773 159.85 74.144L161.13 77.408C160.362 78.0267 159.402 78.5173 158.25 78.88C157.12 79.2213 155.978 79.392 154.826 79.392C152.096 79.392 149.952 78.6453 148.394 77.152C146.837 75.6373 146.058 73.5787 146.058 70.976C146.058 69.3333 146.389 67.872 147.05 66.592C147.733 65.2907 148.682 64.288 149.898 63.584C151.114 62.8587 152.49 62.496 154.026 62.496C156.309 62.496 158.112 63.2427 159.434 64.736C160.757 66.208 161.418 68.2027 161.418 70.72V71.424ZM154.154 65.888C153.237 65.888 152.49 66.1547 151.914 66.688C151.36 67.2213 150.997 68 150.826 69.024H157.258C157.002 66.9333 155.968 65.888 154.154 65.888Z" fill="white"/>
<path d="M172.132 79.392C169.487 79.392 167.407 78.6453 165.892 77.152C164.399 75.6587 163.652 73.6213 163.652 71.04C163.652 69.3547 164.015 67.872 164.74 66.592C165.465 65.2907 166.479 64.288 167.78 63.584C169.103 62.8587 170.628 62.496 172.356 62.496C173.529 62.496 174.671 62.6773 175.78 63.04C176.889 63.4027 177.775 63.8933 178.436 64.512L177.156 67.872C176.516 67.36 175.812 66.9653 175.044 66.688C174.276 66.3893 173.529 66.24 172.804 66.24C171.481 66.24 170.447 66.6453 169.7 67.456C168.975 68.2453 168.612 69.408 168.612 70.944C168.612 72.5013 168.975 73.6853 169.7 74.496C170.425 75.2853 171.46 75.68 172.804 75.68C173.529 75.68 174.276 75.5413 175.044 75.264C175.812 74.9653 176.516 74.56 177.156 74.048L178.436 77.408C177.732 78.0267 176.815 78.5173 175.684 78.88C174.553 79.2213 173.369 79.392 172.132 79.392Z" fill="white"/>
<path d="M190.173 62.528C190.856 62.528 191.432 62.6347 191.901 62.848L191.869 67.264C191.08 66.9013 190.291 66.72 189.501 66.72C188.221 66.72 187.24 67.072 186.557 67.776C185.896 68.4587 185.565 69.4187 185.565 70.656V79.136H180.733V67.552C180.733 65.824 180.648 64.2773 180.477 62.912H185.021L185.341 65.696C185.747 64.672 186.376 63.8933 187.229 63.36C188.104 62.8053 189.085 62.528 190.173 62.528Z" fill="white"/>
<path d="M210.827 62.912L203.339 80C202.422 82.0693 201.259 83.584 199.851 84.544C198.464 85.5253 196.758 86.1547 194.731 86.432L193.611 82.72C195.104 82.4 196.224 81.9947 196.971 81.504C197.739 81.0133 198.336 80.2987 198.763 79.36L199.243 78.304L192.555 62.912H197.611L201.771 73.44L206.059 62.912H210.827Z" fill="white"/>
<path d="M222.341 62.496C223.727 62.496 224.965 62.8587 226.053 63.584C227.141 64.288 227.983 65.2907 228.581 66.592C229.199 67.8933 229.509 69.376 229.509 71.04C229.509 72.704 229.21 74.176 228.613 75.456C228.015 76.7147 227.173 77.6853 226.085 78.368C224.997 79.0507 223.749 79.392 222.341 79.392C221.21 79.392 220.197 79.1573 219.301 78.688C218.405 78.2187 217.722 77.568 217.253 76.736V86.048H212.421V67.552C212.421 65.824 212.335 64.2773 212.165 62.912H216.709L217.029 65.6C217.455 64.64 218.138 63.8827 219.077 63.328C220.037 62.7733 221.125 62.496 222.341 62.496ZM220.965 75.712C222.159 75.712 223.077 75.3173 223.717 74.528C224.357 73.7173 224.677 72.5547 224.677 71.04C224.677 69.5253 224.346 68.3413 223.685 67.488C223.045 66.6347 222.138 66.208 220.965 66.208C219.77 66.208 218.842 66.624 218.181 67.456C217.541 68.2667 217.221 69.44 217.221 70.976C217.221 72.512 217.541 73.6853 218.181 74.496C218.842 75.3067 219.77 75.712 220.965 75.712Z" fill="white"/>
<path d="M238.532 66.528V72.832C238.532 73.728 238.767 74.3893 239.236 74.816C239.705 75.2213 240.313 75.424 241.06 75.424C241.529 75.424 242.063 75.3493 242.66 75.2V78.944C241.892 79.2427 240.964 79.392 239.876 79.392C237.871 79.392 236.335 78.8267 235.268 77.696C234.223 76.5653 233.7 74.976 233.7 72.928V66.528H230.628V62.912H233.7V59.104L238.532 57.536V62.912H242.66V66.528H238.532Z" fill="white"/>
<path d="M252.883 79.392C251.155 79.392 249.641 79.0507 248.339 78.368C247.059 77.6853 246.067 76.704 245.363 75.424C244.681 74.144 244.339 72.6507 244.339 70.944C244.339 69.2373 244.681 67.744 245.363 66.464C246.067 65.184 247.059 64.2027 248.339 63.52C249.641 62.8373 251.155 62.496 252.883 62.496C254.59 62.496 256.083 62.8373 257.363 63.52C258.643 64.2027 259.625 65.184 260.307 66.464C261.011 67.744 261.363 69.2373 261.363 70.944C261.363 72.6507 261.011 74.144 260.307 75.424C259.625 76.704 258.643 77.6853 257.363 78.368C256.083 79.0507 254.59 79.392 252.883 79.392ZM252.883 75.712C254.078 75.712 254.985 75.3173 255.603 74.528C256.243 73.7387 256.563 72.544 256.563 70.944C256.563 69.3653 256.243 68.1813 255.603 67.392C254.985 66.5813 254.078 66.176 252.883 66.176C251.667 66.176 250.739 66.5813 250.099 67.392C249.459 68.1813 249.139 69.3653 249.139 70.944C249.139 74.1227 250.387 75.712 252.883 75.712Z" fill="white"/>
</svg>
