<svg width="47" height="40" viewBox="0 0 47 40" fill="none" xmlns="http://www.w3.org/2000/svg">
<path d="M25.4774 19.7116C27.8813 18.6153 28.2368 15.0378 24.8174 15.0378H20.8575L19.3941 17.9229H20.0828L18.3324 24.8183H22.9235C26.273 24.8471 27.7793 20.8815 25.4774 19.7116ZM22.9235 22.3083H21.7757L22.2061 20.7503H23.2965C24.5878 21.0099 23.7844 22.3659 22.9235 22.3083ZM23.6122 18.9903H22.6366L22.9235 17.6343H24.0139C25.0674 17.894 24.1574 19.0481 23.6122 18.9903Z" fill="#005FAF"/>
<path d="M34.8775 18.7234L36.3808 16.0551L34.3466 14.9883L34.0813 15.3175C32.9839 14.7335 27.2377 15.5399 26.8779 21.2393C27.0929 26.0203 32.4212 25.1603 32.9438 24.8569L34.4093 21.811C32.974 22.7615 30.0352 23.2178 29.9109 20.3625C30.1687 18.0079 32.9336 17.1286 34.8775 18.7234ZM42.3791 15.0387H37.7576L36.2886 17.8375H37.0433L33.5604 24.8193H36.9316L37.6238 23.1353H39.6931L39.7447 24.8193H42.848L42.3791 15.0387ZM38.5613 20.868L39.6931 18.1518L39.7446 20.868H38.5613Z" fill="#005FAF"/>
<path d="M13.5186 24.352L13.6981 24.2996L13.5012 24.026L13.5186 24.352ZM10.5712 24.3054L10.5365 24.55C10.6258 24.5412 10.7359 24.6186 10.7797 24.4451C10.7764 24.31 10.6741 24.3025 10.5712 24.3054ZM12.0015 24.2996C11.9866 24.233 11.9314 24.184 11.793 24.2298L11.8394 24.4801C11.953 24.4547 12.0114 24.3871 12.0015 24.2996ZM8.77038 24.0948L8.71509 24.3172C8.80395 24.3209 8.90804 24.3934 8.96703 24.2616C8.97098 24.179 8.97435 24.0968 8.77038 24.0948ZM11.8799 24.6664L11.9205 24.9226C12.0154 24.925 12.1019 24.8677 12.0768 24.748C12.0526 24.6328 11.9565 24.651 11.8799 24.6664Z" fill="#005FAF"/>
<path d="M15.6458 15.1701C12.5795 13.5996 8.91751 13.6432 5.99597 15.1016C4.48945 17.7682 4.44148 21.4991 5.99597 24.8036C9.21462 26.4413 12.7745 26.3334 15.6684 24.8721C17.0284 22.0666 17.2531 18.6906 15.6458 15.1701ZM10.4671 23.1325L10.2854 23.1346C10.2404 22.6296 10.1203 22.2052 9.86281 21.8804C8.68187 20.3914 6.26782 21.5124 6.88811 18.9819C7.21065 17.6882 10.8896 16.9252 10.4671 23.1325ZM6.89248 20.6331C7.15034 21.1608 8.76587 21.2473 9.32668 21.6513C10.2163 22.292 10.0886 23.1348 10.0886 23.1348H9.87877C9.46573 21.8619 8.30651 22.8698 7.378 22.5269C6.79506 22.3185 6.37182 21.4148 6.89248 20.6331ZM9.83591 24.7828L9.92279 24.09L10.0791 24.1016L10.0096 24.8643C9.93949 25.2003 9.4413 25.1553 9.37844 24.8352L9.45948 24.0434L9.64477 24.0726L9.56373 24.7362C9.57401 24.9559 9.79312 24.9427 9.83591 24.7828ZM9.00399 24.972L8.82577 24.9288C8.84667 24.7807 9.02135 24.4794 8.67611 24.4794L8.58001 24.8732L8.38336 24.8361L8.59227 23.8908C9.10289 23.9467 9.14756 24.0896 9.15768 24.2429C9.13753 24.3619 9.10601 24.445 9.00407 24.4653C9.12337 24.5742 9.00547 24.8023 9.00399 24.972ZM7.87208 23.9132C7.82296 23.9787 7.72464 24.2076 7.71041 24.39C7.69527 24.5834 7.87998 24.5427 7.92598 24.5201C7.96308 24.502 7.99065 24.3467 7.99065 24.3467L7.8613 24.3033L7.90442 24.1734L8.19552 24.2709L8.0554 24.7587L7.93684 24.7261L7.94761 24.6502C7.80248 24.7167 7.5368 24.6668 7.50561 24.4985C7.47443 24.3632 7.56889 23.9532 7.72118 23.7616C7.8692 23.5753 8.22983 23.7573 8.23863 23.8699C8.24735 23.9821 8.20334 24.1083 8.20334 24.1083L8.06758 24.0826C8.06758 24.0826 8.07589 24.0421 8.08773 23.9782C8.10024 23.9105 7.92474 23.8428 7.87208 23.9132ZM10.5192 24.707L10.4845 25.1263L10.3398 25.1205L10.3919 24.1249C10.7533 24.1324 10.9605 24.1827 10.9536 24.4393C10.932 24.7899 10.6496 24.7111 10.5192 24.707ZM10.8795 23.1347H10.6374C10.6159 22.2725 10.7808 20.6955 10.3302 19.5349C9.98886 18.6551 9.12494 18.2593 8.93348 17.5486C8.63036 16.4237 9.14625 15.2065 10.8795 15.1128C12.3822 15.2679 12.8438 16.4343 12.5875 17.5203C12.1469 18.6061 11.7061 18.45 11.1574 19.5316C10.7092 20.691 10.8799 22.21 10.8795 23.1347ZM13.565 24.7304L13.3971 24.7886L13.3449 23.7872L13.5418 23.7348L14.0282 24.5615L13.895 24.6489L13.7329 24.4161L13.5476 24.4859L13.565 24.7304ZM11.6059 23.1347H11.4122C11.5718 20.9204 14.3393 21.4015 14.5922 20.6331C15.0296 21.3949 14.8723 22.0372 14.4156 22.3664C13.2807 23.1849 12.1924 21.7607 11.6059 23.1347ZM12.6328 24.253L12.7197 24.713C12.7737 24.819 12.8104 24.7994 12.8934 24.7887C12.9896 24.7187 12.9695 24.6505 12.9513 24.5616L13.1192 24.5384C13.163 24.8716 13.0054 24.9056 12.8876 24.9284C12.6349 24.9466 12.5854 24.8972 12.517 24.5675C12.4772 24.2853 12.4084 23.9873 12.6444 23.9329C13.0318 23.8734 13.0089 24.0487 13.0439 24.1716L12.876 24.2008C12.8492 24.0952 12.8106 24.0533 12.7254 24.0611C12.6479 24.0969 12.616 24.1549 12.6328 24.253ZM12.2796 24.7304C12.2876 24.8754 12.2387 24.9717 12.1464 25.004L11.7526 25.0855L11.5963 24.1249C11.6771 24.1117 12.0732 23.9657 12.1695 24.2298C12.217 24.391 12.1678 24.4489 12.1116 24.5208C12.2181 24.5552 12.2541 24.6386 12.2796 24.7304ZM11.2684 19.9096C12.1456 17.4261 14.153 17.865 14.5982 18.982C15.2081 21.2233 13.2441 20.6086 11.9861 21.5277C11.5106 21.9435 11.2604 22.4205 11.2567 23.1437H11.0411C11.0282 21.6872 11.0048 20.6558 11.2684 19.9096Z" fill="#005FAF"/>
</svg>
