<svg width="55" height="40" viewBox="0 0 55 40" fill="none" xmlns="http://www.w3.org/2000/svg">
<path fill-rule="evenodd" clip-rule="evenodd" d="M4.79089 17.9621L8.65323 22.8343L4.79089 26.0348V17.9621Z" fill="#F15A23"/>
<path fill-rule="evenodd" clip-rule="evenodd" d="M6.3454 26.0357L9.25162 23.6044L11.2603 26.0357H6.3454Z" fill="#F15A23"/>
<path fill-rule="evenodd" clip-rule="evenodd" d="M4.79089 15.356L5.79882 16.631L9.94304 21.8095L11.2859 20.7402C11.2859 20.7402 10.1711 19.4277 9.42253 17.9631C7.959 15.0996 8.99514 13.3168 8.99514 13.3168H4.79089V15.356Z" fill="#F15A23"/>
<path fill-rule="evenodd" clip-rule="evenodd" d="M10.5338 22.6082L11.9014 21.4785C11.9014 21.4785 13.2076 23.1979 14.7222 23.6037C16.7069 24.1356 17.5857 22.8345 17.5857 22.8345V26.035H13.2263L14.2093 25.1851C14.2093 25.1851 13.6965 25.527 12.4422 24.6582C11.7018 24.1454 10.5338 22.6082 10.5338 22.6082Z" fill="#F15A23"/>
<path fill-rule="evenodd" clip-rule="evenodd" d="M10.6597 13.3078C10.6597 13.3078 10.2234 13.9022 10.5339 15.3564C10.8659 16.9108 12.1861 18.5559 12.183 18.5191C12.183 18.5191 12.2679 16.8855 13.2265 15.9269C15.2698 13.8836 17.5858 15.1 17.5858 15.1V13.3172L10.6597 13.3078Z" fill="#F15A23"/>
<path fill-rule="evenodd" clip-rule="evenodd" d="M17.5856 17.2537C17.5856 17.2537 16.2934 16.1469 15.17 16.1469C13.7329 16.1469 12.9484 17.3876 12.9484 18.2876C12.9484 19.5985 13.5777 20.3269 14.2092 20.9585C15.1168 21.8661 16.221 22.8449 17.5856 22.0571C17.5856 20.566 17.5856 17.2537 17.5856 17.2537Z" fill="#F15A23"/>
<path fill-rule="evenodd" clip-rule="evenodd" d="M32.3015 13.442H35.3507C35.3507 13.442 38.052 17.532 39.3795 19.2218C40.707 20.9117 42.1359 22.8364 42.1359 22.8364C42.1359 22.8364 42.1359 17.2548 42.1359 14.3579C42.1359 13.9918 41.1745 13.442 41.1745 13.442H44.6907C44.6907 13.442 43.5369 13.916 43.5369 14.3579C43.5369 17.9642 43.5369 26.6922 43.5369 26.6922C43.5369 26.6922 42.4299 26.0783 41.1745 24.6195C39.7639 22.9805 34.7464 16.3633 34.7464 16.3633C34.7464 16.3633 34.7464 22.6101 34.7464 24.934C34.7464 25.373 35.7078 26.0369 35.7078 26.0369H32.3015C32.3015 26.0369 33.2355 25.3676 33.2355 24.934C33.2355 21.8107 33.2355 17.2548 33.2355 14.3579C33.2355 13.9687 32.3015 13.442 32.3015 13.442Z" fill="#005E6A"/>
<path fill-rule="evenodd" clip-rule="evenodd" d="M46.66 13.442H50.5734C50.5734 13.442 49.5226 13.9397 49.5226 14.3579C49.5226 17.2548 49.5226 22.0582 49.5226 24.934C49.5226 25.3911 50.5734 26.0369 50.5734 26.0369H46.66C46.66 26.0369 47.6383 25.3763 47.6383 24.934C47.6383 21.4805 47.6383 17.2548 47.6383 14.3579C47.6383 13.9559 46.66 13.442 46.66 13.442Z" fill="#005E6A"/>
<path fill-rule="evenodd" clip-rule="evenodd" d="M20.7877 13.442C20.7877 13.442 21.8023 13.9479 21.8023 14.3579C21.8023 17.2548 21.8023 21.4805 21.8023 24.934C21.8023 25.3836 20.7877 26.0369 20.7877 26.0369C20.7877 26.0369 25.8563 26.0369 26.5854 26.0369C26.9477 26.0369 31.0062 25.3733 31.0062 22.2444C31.0062 19.1156 27.8536 18.8226 27.8536 18.8226C27.8536 18.8226 29.7741 18.2887 29.7741 16.148C29.7741 13.8406 26.9477 13.442 26.5854 13.442C25.8324 13.442 20.7877 13.442 20.7877 13.442ZM23.8677 18.6153V14.6777C23.8677 14.6777 25.5483 14.6777 26.223 14.6777C26.5854 14.6777 27.8536 15.1008 27.8536 16.6704C27.8536 17.9642 26.5854 18.6153 26.223 18.6153C25.4015 18.6153 23.8677 18.6153 23.8677 18.6153ZM23.8677 19.648C23.8677 19.648 26.223 19.648 26.5854 19.648C26.9477 19.648 29.0857 20.2033 29.0857 22.0582C29.0857 23.9493 26.9477 24.6195 26.5854 24.6195C26.223 24.6195 23.8677 24.6195 23.8677 24.6195V19.648Z" fill="#005E6A"/>
</svg>
