<svg width="62" height="40" viewBox="0 0 62 40" fill="none" xmlns="http://www.w3.org/2000/svg">
<path d="M19.1729 16.897H22.0259C23.1814 16.897 24.0428 17.4033 24.0428 18.47C24.0428 19.2521 23.6431 19.6875 22.9498 19.9186V19.9364C23.7765 20.1056 24.203 20.5499 24.203 21.3052C24.203 22.7895 22.8962 23.1004 21.7854 23.1004H19.1729V16.897ZM20.8258 19.3503H21.288C21.83 19.3503 22.3904 19.2169 22.3904 18.6922C22.3904 18.1239 21.8568 18.0703 21.3053 18.0703H20.8258V19.3503ZM20.8258 21.9276H21.3148C21.9193 21.9276 22.5501 21.8383 22.5501 21.2075C22.5501 20.532 21.9015 20.4701 21.3321 20.4701H20.8258V21.9276Z" fill="#00529C"/>
<path d="M26.3728 16.897H28.3991L30.7899 23.1004H28.9768L28.5146 21.7763H26.1863L25.6973 23.1004H24.0176L26.3728 16.897ZM27.3859 18.1769H27.3681L26.5681 20.6035H28.1239L27.3859 18.1769Z" fill="#00529C"/>
<path d="M31.0201 16.897H33.1262L35.224 21.1098H35.2413L35.2151 16.897H36.7261V23.1004H34.6725L32.5044 18.8608H32.487L32.5396 23.1004H31.0201V16.897Z" fill="#00529C"/>
<path d="M37.2869 16.897H38.9398V19.4301H38.9576L40.8237 16.897H42.8143L40.5217 19.7852L42.9924 23.1004H40.8857L38.9576 20.2831H38.9398V23.1004H37.2869V16.897Z" fill="#00529C"/>
<path d="M45.0424 16.8965H47.8954C49.0504 16.8965 49.9128 17.4028 49.9128 18.4696C49.9128 19.2516 49.5131 19.687 48.8198 19.9181V19.936C49.6465 20.1051 50.0725 20.5494 50.0725 21.3047C50.0725 22.789 48.7663 23.0999 47.6554 23.0999H45.0424V16.8965ZM46.6953 19.3498H47.1575C47.7001 19.3498 48.2594 19.2164 48.2594 18.6917C48.2594 18.1234 47.7268 18.0699 47.1754 18.0699H46.6953V19.3498ZM46.6953 21.9271H47.1843C47.7883 21.9271 48.4196 21.8378 48.4196 21.207C48.4196 20.5316 47.771 20.4696 47.2021 20.4696H46.6953V21.9271Z" fill="#00529C"/>
<path d="M50.439 16.8973H53.3897C54.4917 16.8973 55.3893 17.3952 55.3893 18.462C55.3893 19.2882 54.9985 19.8391 54.1986 20.0256V20.0434C54.7312 20.1858 54.7669 20.6569 55.0783 21.4122L55.6824 23.1008H53.9586L53.603 21.9815C53.2653 20.9148 53.0515 20.6474 52.4386 20.6474H52.0919V23.1008H50.439V16.8973ZM52.0919 19.4746H52.5273C53.061 19.4746 53.7364 19.4568 53.7364 18.7545C53.7364 18.1773 53.1586 18.0707 52.5273 18.0707H52.0919V19.4746Z" fill="#00529C"/>
<path d="M56.1381 16.8983H57.7909V23.1017H56.1381V16.8983Z" fill="#00529C"/>
<path d="M15.4009 13.7679H6.74986C5.69941 13.7679 4.84802 14.6403 4.84802 15.7165V15.737V24.284C4.84802 25.3497 5.68366 26.2163 6.72045 26.2321H15.3961C16.4466 26.2321 17.2985 25.3602 17.2985 24.284L17.3022 15.7165C17.3022 14.6403 16.4513 13.7679 15.4009 13.7679ZM7.77773 25.2336L7.30608 25.2389C6.73463 25.2389 6.27138 24.7693 6.27138 24.19L6.26876 24.1075V16.1955L6.27191 15.769C6.29344 15.2086 6.7194 14.758 7.27667 14.758H8.23625C9.10603 14.758 9.81088 15.5143 9.81088 16.4056C9.81088 16.8468 9.63808 17.247 9.35814 17.538L6.91006 20.0223L9.20477 22.3591C9.50047 22.6642 9.67905 23.0644 9.67905 23.503C9.67905 24.4589 8.82818 25.2336 7.77773 25.2336ZM14.832 25.2257L10.5541 25.2242C10.5541 25.2242 11.0483 24.1553 11.0483 23.4935C11.0483 22.6863 10.7789 21.9657 10.3566 21.4888L8.89331 19.9971L10.3865 18.454C10.8314 18.0364 11.1266 17.2948 11.1266 16.4497C11.1266 15.7806 10.9417 15.1881 10.6439 14.758H11.6802C12.5499 14.758 13.2553 15.5143 13.2553 16.4056C13.2553 16.8468 13.0825 17.247 12.8026 17.538L10.4012 19.9966L15.3888 25.0824C15.2307 25.1816 15.0316 25.2257 14.832 25.2257ZM15.8767 23.638L12.3026 19.995L14.0048 18.2649C14.3509 17.8316 14.571 17.1793 14.571 16.4497C14.571 15.7764 14.3835 15.1687 14.0831 14.7386L14.8446 14.7617C15.4161 14.7617 15.8793 15.2312 15.8793 15.8105L15.8767 23.638Z" fill="#00529C"/>
</svg>
