<svg width="61" height="40" viewBox="0 0 61 40" fill="none" xmlns="http://www.w3.org/2000/svg">
<path fill-rule="evenodd" clip-rule="evenodd" d="M31.8651 25.89C31.8695 25.8094 31.8742 25.6803 31.8783 25.5033V22.1087L31.8673 21.7793C31.8646 21.7093 31.8612 21.6616 31.8578 21.6367C31.8541 21.6104 31.8485 21.5877 31.8407 21.5667C31.8153 21.4829 31.7589 21.4238 31.6742 21.3884C31.5961 21.3555 31.4806 21.3396 31.3307 21.3384V21.2229H33.2692C33.5509 21.2234 33.8056 21.2417 34.0329 21.2783C34.2599 21.3147 34.4428 21.365 34.5827 21.429C34.988 21.6211 35.1882 21.9446 35.186 22.4048C35.1906 23.0625 34.758 23.4827 33.8625 23.5909L33.7123 23.615C33.9137 23.6224 34.1862 23.6895 34.3129 23.7188C34.4387 23.7479 34.5619 23.794 34.6828 23.857C35.1581 24.0958 35.3923 24.4776 35.3876 25.0057C35.3901 25.6471 35.0773 26.0641 34.4426 26.2611C34.3039 26.3006 34.1301 26.3319 33.9198 26.3546C33.7089 26.3773 33.4799 26.389 33.2331 26.3895H31.3307V26.2738C31.5546 26.2711 31.7086 26.2369 31.7767 26.1566C31.8053 26.1293 31.8256 26.0992 31.839 26.0648C31.8527 26.0299 31.8607 25.9703 31.8651 25.89ZM32.4623 21.3816V23.5359H33.2187C34.0983 23.5308 34.5539 23.1653 34.5588 22.4336C34.5649 21.7234 34.0846 21.3767 33.1537 21.3816H32.4623ZM34.7101 24.9481C34.7053 24.4459 34.5236 24.0909 34.1615 23.8924C34.0517 23.8362 33.912 23.793 33.7443 23.7625C33.5768 23.7322 33.392 23.7169 33.1899 23.7161H32.4623V26.2306H33.1899C33.717 26.233 34.1022 26.1346 34.3395 25.9283C34.4599 25.8294 34.5512 25.6952 34.6147 25.5267C34.6779 25.3582 34.7094 25.1649 34.7101 24.9481Z" fill="#3A3A3A"/>
<path d="M38.1622 26.2418C38.1228 26.1639 38.0953 26.0713 38.0833 25.8348L38.0799 25.7647L38.0332 25.8172C37.9778 25.8799 37.9234 25.9341 37.8702 25.9803C37.8167 26.0269 37.7547 26.0745 37.6851 26.1229C37.532 26.2352 37.3846 26.3143 37.2432 26.3604C37.1018 26.4063 36.9424 26.4288 36.7649 26.4273C36.4558 26.4285 36.2185 26.3553 36.0488 26.211C35.9539 26.1255 35.8794 26.0184 35.825 25.8882C35.7705 25.7583 35.7427 25.6187 35.7415 25.4688C35.7451 24.916 36.0845 24.5593 36.7786 24.4014C36.9622 24.3589 37.1563 24.324 37.3604 24.2966C37.5652 24.2693 37.7972 24.2468 38.0567 24.2293L38.0833 23.7471C38.0838 23.5823 38.0757 23.4487 38.0596 23.3469C38.0435 23.2439 38.0169 23.154 37.9795 23.0781C37.8765 22.8774 37.6665 22.7812 37.3631 22.7812C36.8762 22.7788 36.6123 23.0105 36.585 23.4714C36.582 23.5447 36.5752 23.5962 36.5657 23.6274C36.5564 23.6567 36.5405 23.6785 36.5181 23.6943C36.4697 23.7268 36.3926 23.7456 36.2817 23.7468C36.0432 23.7505 35.9539 23.6794 35.9578 23.5601C35.9592 23.4351 36.0007 23.3142 36.084 23.1978C36.1672 23.0808 36.2832 22.9792 36.4331 22.8926C36.7027 22.7432 37.0479 22.667 37.4712 22.6658C37.9344 22.667 38.2449 22.772 38.4146 22.9724C38.4832 23.0569 38.5342 23.1611 38.5674 23.2874C38.6004 23.4136 38.6172 23.5735 38.617 23.7681L38.6163 23.8093L38.6126 23.9978L38.6026 24.4956L38.5953 25.1802L38.5882 25.5118C38.5887 25.6678 38.5953 25.7867 38.606 25.9197C38.6168 26.0494 38.6631 26.1939 38.7669 26.2322C38.8751 26.2723 38.9791 26.2881 39.1771 26.2894C39.3226 26.2864 39.4346 26.2698 39.5106 26.2376C39.5972 26.2007 39.6505 26.1226 39.6734 26.0118C39.6959 25.9036 39.7056 25.7391 39.7032 25.5186V23.5864C39.7081 23.3235 39.6776 23.1384 39.6026 23.0417C39.5294 22.9473 39.3931 22.9065 39.2059 22.9084V22.8059L40.2367 22.7307V23.5518L40.2904 23.4561C40.443 23.1843 40.6161 22.9922 40.8087 22.8767C41.0013 22.7612 41.2428 22.7041 41.5336 22.707C41.9706 22.7012 42.275 22.8476 42.4532 23.1404C42.5184 23.2383 42.566 23.3564 42.5944 23.4946C42.6227 23.6331 42.6368 23.8101 42.6361 24.0256V25.5186C42.6334 25.7413 42.6427 25.907 42.6642 26.0147C42.6862 26.1255 42.7389 26.2034 42.8258 26.2393C42.8976 26.2689 43.0651 26.285 43.2079 26.2889C43.3417 26.2847 43.4452 26.2684 43.516 26.2374C43.6005 26.2005 43.6515 26.1221 43.6732 26.0113C43.6942 25.9036 43.7033 25.7388 43.7006 25.5186V22.0083C43.7033 21.8071 43.695 21.6579 43.6747 21.5617C43.6537 21.4614 43.6019 21.3923 43.5172 21.3625C43.4437 21.3366 43.3336 21.3244 43.1891 21.3239V21.2212L44.2611 21.1665C44.2477 21.4045 44.2375 21.6479 44.2306 21.8967C44.2233 22.1565 44.2199 22.3833 44.2199 22.5774V24.9356L45.4011 23.6414C45.568 23.4563 45.6594 23.3008 45.6606 23.1763C45.6691 23.0029 45.4941 22.9246 45.2067 22.9101V22.8079H46.7417V22.9119C46.6494 22.9226 46.569 22.9394 46.5009 22.9629C46.4267 22.988 46.3505 23.0247 46.2729 23.0715C46.194 23.1191 46.1281 23.1628 46.0746 23.2026C46.0202 23.2434 45.956 23.3013 45.882 23.3765C45.808 23.4514 45.7011 23.5652 45.5605 23.718L45.1706 24.1377L46.1911 25.743C46.3076 25.9332 46.4147 26.0677 46.5131 26.1441C46.6071 26.2168 46.727 26.2637 46.8713 26.2859V26.3909H45.9379C45.9123 26.3387 45.8771 26.271 45.8322 26.188L45.6838 25.9173L45.5702 25.7134L44.8149 24.4824L44.2213 25.1465L44.2199 25.5186C44.2172 25.7388 44.2262 25.9036 44.2475 26.0115C44.2694 26.1224 44.3212 26.2007 44.4069 26.2376C44.4818 26.2696 44.5934 26.2864 44.7384 26.2894V26.3909H41.5838V26.2891C41.7975 26.2833 41.9442 26.2483 42.003 26.1705C42.0267 26.1402 42.0445 26.1058 42.057 26.0672C42.0697 26.0284 42.0773 25.9783 42.0809 25.9173C42.0851 25.8689 42.0895 25.7994 42.0944 25.7078C42.0995 25.616 42.1022 25.5528 42.1027 25.5191V24.0691C42.1039 23.7114 42.0655 23.4468 41.9845 23.2786C41.8617 23.0139 41.6395 22.8813 41.3246 22.8801C40.9735 22.8789 40.6934 23.0461 40.4859 23.3765C40.4078 23.5012 40.3472 23.6433 40.3035 23.8018C40.2596 23.9607 40.2374 24.117 40.2367 24.2708V25.5186C40.234 25.7413 40.2432 25.907 40.2647 26.0147C40.2867 26.1255 40.3392 26.2034 40.4261 26.2393C40.502 26.2706 40.6151 26.2867 40.7625 26.2894V26.3909L39.211 26.3907C39.0733 26.3953 38.8113 26.4024 38.6814 26.4007C38.5452 26.3987 38.4795 26.3843 38.3553 26.3751C38.2449 26.3428 38.1985 26.314 38.1622 26.2418ZM36.3328 25.4473C36.3355 25.6822 36.3926 25.8731 36.5066 26.0171C36.6209 26.1619 36.7757 26.2361 36.9666 26.2398C37.1594 26.2371 37.3418 26.1868 37.5125 26.0892C37.6827 25.9915 37.8167 25.8614 37.9139 25.6995C37.9732 25.5962 38.0164 25.4634 38.0435 25.3025C38.0704 25.1424 38.0838 24.9431 38.0833 24.7051V24.3352C37.7378 24.365 37.4908 24.3975 37.3111 24.4356C37.1302 24.4739 36.9705 24.5286 36.8313 24.6001C36.501 24.7642 36.3352 25.0486 36.3328 25.4473Z" fill="#3A3A3A"/>
<path fill-rule="evenodd" clip-rule="evenodd" d="M5.97878 24.2144V25.4998C5.9761 25.7061 5.98782 25.8592 6.01419 25.9591C6.0408 26.0592 6.09793 26.1251 6.18606 26.1573C6.2742 26.1898 6.40946 26.2079 6.59183 26.2115V26.391H4.57349V26.2115C4.74561 26.2079 4.87281 26.1898 4.95533 26.1573C5.03785 26.1251 5.09132 26.0592 5.11573 25.9591C5.14015 25.8592 5.15089 25.7061 5.1482 25.4998V22.1209C5.15089 21.9146 5.14015 21.7613 5.11671 21.6612C5.09303 21.5611 5.04176 21.4944 4.9629 21.4612C4.88379 21.4278 4.7627 21.4082 4.59888 21.4021V21.2224H6.52176C7.16997 21.2197 7.64459 21.3342 7.94635 21.5655C8.24787 21.7969 8.3968 22.1617 8.39338 22.6597C8.39533 23.3599 8.12287 23.8182 7.57574 24.0347C7.43291 24.0906 7.25078 24.1343 7.02958 24.1661C6.80839 24.1976 6.56254 24.2137 6.29178 24.2144H5.97878ZM5.97878 24.014H6.31107C6.71024 24.0128 7.00395 23.9183 7.19243 23.7308C7.29497 23.6221 7.37261 23.48 7.42559 23.304C7.47857 23.1282 7.50518 22.9273 7.50542 22.7012C7.50323 21.8501 7.13066 21.4241 6.38748 21.4229H5.97878V24.014Z" fill="#3A3A3A"/>
<path fill-rule="evenodd" clip-rule="evenodd" d="M11.6431 24.4312H9.29439C9.29707 24.6816 9.31172 24.8919 9.33858 25.0615C9.36519 25.231 9.40816 25.386 9.46724 25.5264C9.66232 25.981 9.96359 26.208 10.3713 26.208C10.6023 26.2068 10.8118 26.139 10.9995 26.0042C11.1875 25.8694 11.3435 25.6758 11.4683 25.4229L11.6345 25.5332C11.4709 25.8587 11.2712 26.0977 11.0354 26.2503C10.7995 26.4029 10.5117 26.4783 10.1718 26.4768C9.63717 26.47 9.1457 26.2991 8.83759 25.9646C8.52973 25.6299 8.37274 25.1714 8.36664 24.5896C8.37274 24.0034 8.5246 23.5398 8.82197 23.1982C9.11909 22.8569 9.59396 22.6823 10.1054 22.6748C10.4458 22.6758 10.7742 22.7531 11.0073 22.9072C11.2405 23.0615 11.4123 23.2871 11.5234 23.584C11.5596 23.6826 11.5869 23.7954 11.6057 23.9224C11.6243 24.0493 11.6367 24.219 11.6431 24.4312ZM9.30098 24.2314H10.7702C10.7644 24.019 10.7529 23.8479 10.7361 23.7183C10.7195 23.5886 10.6931 23.4726 10.6572 23.3706C10.5332 23.0088 10.3425 22.8298 10.0857 22.8332C9.79757 22.8357 9.58248 23.0376 9.44063 23.4394C9.4045 23.5434 9.37545 23.6575 9.35347 23.7812C9.3315 23.905 9.31392 24.0552 9.30098 24.2314Z" fill="#3A3A3A"/>
<path d="M11.7932 22.7735L13.096 22.6834C13.1028 22.8133 13.1082 22.9227 13.1116 23.0108C13.115 23.0992 13.1167 23.1773 13.1167 23.2447V23.4527C13.3997 22.9353 13.7415 22.6741 14.1424 22.6695C14.3155 22.6729 14.4561 22.7234 14.5643 22.8211C14.6722 22.9187 14.7281 23.044 14.7313 23.1963C14.7288 23.3231 14.6819 23.4246 14.5909 23.501C14.5 23.5777 14.3807 23.617 14.2325 23.619C14.0545 23.6246 13.9461 23.5508 13.9068 23.3973C13.8811 23.3023 13.8545 23.2376 13.8269 23.2032C13.7996 23.1688 13.7591 23.1526 13.7058 23.1546H13.6919C13.5557 23.1663 13.4263 23.2747 13.304 23.4803C13.2486 23.5831 13.2068 23.6963 13.179 23.8209C13.1514 23.9451 13.1375 24.088 13.1375 24.2496V25.5316C13.1348 25.7362 13.1448 25.8871 13.1673 25.984C13.1897 26.0809 13.2407 26.1444 13.3203 26.1744C13.3997 26.2042 13.5237 26.2211 13.6919 26.2245V26.391H11.7656V26.2245C11.9226 26.2252 12.0388 26.2101 12.1145 26.1788C12.1902 26.1478 12.2393 26.0829 12.262 25.984C12.2844 25.8849 12.2944 25.7342 12.2922 25.5316V23.6119C12.2986 23.3262 12.27 23.1407 12.2063 23.055C12.1428 22.9693 12.0049 22.931 11.7932 22.9397V22.7735Z" fill="#3A3A3A"/>
<path d="M16.2788 22.6836L16.2859 23.3697C16.5664 22.9078 16.9682 22.6744 17.4914 22.6697C18.0239 22.6663 18.3518 22.9087 18.4753 23.3975C18.626 23.1458 18.7979 22.9612 18.9907 22.8438C19.1839 22.7266 19.4092 22.6685 19.6673 22.6697C20.075 22.6722 20.3753 22.806 20.5682 23.0716C20.6436 23.1722 20.6971 23.2952 20.7293 23.4407C20.7613 23.5862 20.7769 23.775 20.7759 24.0071V25.5316C20.7737 25.7342 20.7837 25.8849 20.8062 25.9837C20.8289 26.0829 20.878 26.1478 20.9537 26.1788C21.0293 26.2101 21.1456 26.2252 21.3028 26.2245V26.391H19.4248V26.2245C19.575 26.2252 19.6863 26.2101 19.7591 26.1788C19.8318 26.1478 19.8792 26.0829 19.9012 25.9837C19.9231 25.8849 19.9329 25.7342 19.9307 25.5316V24.014C19.9322 23.65 19.8875 23.3873 19.7964 23.2259C19.7051 23.0645 19.5584 22.9854 19.3555 22.9886C19.1118 22.9839 18.9063 23.1109 18.7388 23.3697C18.5945 23.5858 18.5227 23.8189 18.5239 24.0696V25.5316C18.5217 25.7342 18.5315 25.8849 18.5537 25.9837C18.5757 26.0829 18.6238 26.1478 18.6975 26.1788C18.7712 26.2101 18.8843 26.2252 19.0366 26.2245V26.391H17.1797V26.2245C17.3298 26.2252 17.4414 26.2101 17.5139 26.1788C17.5867 26.1478 17.634 26.0829 17.656 25.9837C17.678 25.8849 17.6877 25.7342 17.6855 25.5316V24.0071C17.689 23.3211 17.5019 22.9815 17.1242 22.9886C16.8891 22.9969 16.6921 23.1084 16.5334 23.3228C16.3747 23.5374 16.2922 23.8047 16.2859 24.1251V25.5316C16.2837 25.7364 16.2934 25.8883 16.3154 25.9869C16.3371 26.0858 16.3845 26.1502 16.4572 26.1805C16.53 26.2108 16.6413 26.2254 16.7915 26.2245V26.391H14.9135V26.2245C15.0707 26.2254 15.187 26.2108 15.2626 26.1805C15.3383 26.1502 15.3876 26.0858 15.4101 25.9869C15.4326 25.8883 15.4426 25.7364 15.4404 25.5316V23.6053C15.4475 23.3233 15.4194 23.1407 15.3554 23.0569C15.2917 22.9734 15.1491 22.9344 14.9277 22.94V22.7737L16.2788 22.6836Z" fill="#3A3A3A"/>
<path d="M26.2296 23.0008V25.3153C26.2293 25.4659 26.2349 25.5907 26.2459 25.6893C26.2572 25.788 26.2747 25.8712 26.2989 25.9388C26.3282 26.0162 26.3734 26.078 26.4349 26.1241C26.4962 26.1703 26.5641 26.1942 26.6383 26.1952C26.7862 26.193 26.9478 26.1215 27.1234 25.9803L27.2203 26.1537C26.9422 26.3868 26.6256 26.5023 26.2711 26.5001C25.8887 26.4943 25.6278 26.3673 25.4881 26.119C25.4608 26.0641 25.4393 26.0013 25.4241 25.931C25.409 25.8607 25.3985 25.7657 25.3926 25.6463C25.3868 25.5267 25.3839 25.3653 25.3841 25.1627V23.0008H24.9891V22.793C25.14 22.7872 25.2679 22.7554 25.3729 22.6976C25.4779 22.6397 25.5694 22.5491 25.6475 22.4256C25.7088 22.3316 25.7594 22.2269 25.7991 22.1121C25.8387 21.9971 25.8736 21.8545 25.9039 21.6841L26.2503 21.6495C26.2457 21.7412 26.2418 21.8343 26.2389 21.9285C26.2357 22.0227 26.2335 22.1363 26.232 22.2691C26.2303 22.4017 26.2296 22.5718 26.2296 22.7789H27.068V23.0008H26.2296Z" fill="#3A3A3A"/>
<path fill-rule="evenodd" clip-rule="evenodd" d="M24.9858 26.2443V26.3908C24.7829 26.4043 24.7011 26.404 24.488 26.4043C24.3188 26.4045 24.1437 26.4016 23.9985 26.3469C23.9086 26.3132 23.8583 26.2844 23.7914 26.2136C23.7446 26.1394 23.7148 26.1355 23.6996 25.9287C23.5209 26.1218 23.3346 26.2639 23.1413 26.3547C22.9477 26.4458 22.7387 26.4907 22.5148 26.49C22.1823 26.4863 21.9223 26.3945 21.7345 26.2143C21.5465 26.0341 21.4511 25.7866 21.4476 25.4711C21.4464 24.8764 21.8163 24.5068 22.5565 24.3625C22.8903 24.2978 23.269 24.2541 23.6928 24.2309V23.7804C23.6965 23.4196 23.6581 23.1693 23.5785 23.0304C23.4989 22.8913 23.3568 22.8248 23.1523 22.8312C22.9352 22.8266 22.7804 22.9049 22.6881 23.0668C22.6544 23.1222 22.63 23.1862 22.6144 23.2582C22.599 23.3302 22.5866 23.4303 22.5773 23.5587C22.5717 23.682 22.5358 23.7697 22.4699 23.8219C22.4037 23.8742 22.2985 23.8996 22.1544 23.8984C21.8334 23.8959 21.6718 23.7897 21.6693 23.5795C21.6705 23.4569 21.7084 23.34 21.7831 23.2287C21.8576 23.1173 21.963 23.0194 22.0993 22.935C22.3878 22.7572 22.7665 22.6696 23.2355 22.6718C23.7126 22.6696 24.0544 22.7641 24.2612 22.956C24.3542 23.0436 24.4225 23.1557 24.4662 23.2919C24.5102 23.4281 24.5317 23.6024 24.5314 23.8151L24.5243 24.4179L24.5175 25.0207C24.5117 25.2182 24.5095 25.343 24.5104 25.395C24.508 25.6447 24.516 25.8273 24.5341 25.9423C24.5522 26.0576 24.5722 26.1081 24.6479 26.1706C24.7802 26.2463 24.8935 26.2441 24.9858 26.2443ZM23.6928 24.9238V24.3903C23.1967 24.424 22.8449 24.5158 22.6371 24.6657C22.4293 24.8156 22.3285 25.0495 22.3346 25.3674C22.3368 25.6166 22.3881 25.8144 22.4879 25.9606C22.588 26.1069 22.724 26.1816 22.8959 26.185C23.037 26.1835 23.1671 26.143 23.2865 26.0627C23.4059 25.9829 23.4999 25.871 23.568 25.7277C23.6127 25.6398 23.6447 25.5329 23.6642 25.4062C23.6838 25.2795 23.6933 25.1188 23.6928 24.9238Z" fill="#3A3A3A"/>
<path fill-rule="evenodd" clip-rule="evenodd" d="M30.9522 26.2439V26.3903C30.7493 26.4038 30.6675 26.404 30.4543 26.4043C30.2851 26.4045 30.1101 26.4016 29.9648 26.3469C29.875 26.3132 29.8247 26.2844 29.7578 26.2136C29.7109 26.1394 29.6811 26.1355 29.666 25.9287C29.4873 26.1218 29.301 26.2639 29.1074 26.3547C28.914 26.4458 28.705 26.4907 28.4812 26.49C28.1486 26.4863 27.8886 26.3945 27.7009 26.2143C27.5129 26.0341 27.4174 25.7866 27.414 25.4711C27.4128 24.8764 27.7824 24.5068 28.5229 24.3625C28.8567 24.2978 29.2353 24.2541 29.6592 24.2309V23.7804C29.6628 23.4196 29.6245 23.1693 29.5449 23.0304C29.4651 22.8913 29.323 22.8248 29.1186 22.8312C28.9016 22.8266 28.7468 22.9049 28.6545 23.0668C28.6208 23.1222 28.5962 23.1862 28.5808 23.2582C28.5654 23.3302 28.5529 23.4303 28.5437 23.5587C28.538 23.682 28.5022 23.7697 28.4362 23.8222C28.3701 23.8742 28.2648 23.8996 28.1208 23.8984C27.7998 23.8959 27.6381 23.7897 27.6357 23.5795C27.6369 23.4569 27.6748 23.34 27.7495 23.2287C27.8239 23.1173 27.9294 23.0194 28.0654 22.935C28.3542 22.7572 28.7329 22.6696 29.2019 22.6718C29.6789 22.6696 30.0207 22.7641 30.2275 22.956C30.3206 23.0436 30.3889 23.1557 30.4326 23.2919C30.4766 23.4281 30.498 23.6024 30.4978 23.8151L30.4907 24.4179L30.4839 25.0207C30.478 25.2182 30.4758 25.343 30.4768 25.395C30.4744 25.6447 30.4824 25.8273 30.5005 25.9426C30.5186 26.0576 30.5386 26.1081 30.6143 26.1706C30.7466 26.2463 30.8599 26.2436 30.9522 26.2439ZM29.6592 24.9238V24.3903C29.1631 24.424 28.811 24.5158 28.6035 24.6657C28.3957 24.8156 28.2949 25.0495 28.301 25.3674C28.3032 25.6166 28.3545 25.8144 28.4543 25.9606C28.5544 26.1069 28.6904 26.1816 28.8623 26.185C29.0034 26.1835 29.1335 26.143 29.2529 26.0627C29.3723 25.9826 29.466 25.871 29.5344 25.7275C29.5791 25.6401 29.6111 25.5329 29.6306 25.4062C29.6501 25.2797 29.6596 25.1188 29.6592 24.9238Z" fill="#3A3A3A"/>
<path d="M45.2204 17.7218L45.2067 17.9886L50.3272 23.9953L50.511 24.0254L50.5342 24.0139L50.6241 23.8474L48.4404 16.5382L48.0698 16.2884L45.2204 17.7218Z" fill="#0097B9"/>
<path fill-rule="evenodd" clip-rule="evenodd" d="M46.7346 18.2807L50.5213 24.0416L50.3199 24.0086L45.1929 17.9863L46.7346 18.2807Z" fill="#005874"/>
<path d="M48.0753 16.2823L48.4447 16.5331L47.2974 18.0585L46.7647 17.8256L48.0753 16.2823Z" fill="#2FB8E7"/>
<path d="M46.7646 17.8242L46.7348 18.2798L45.1932 17.9853L45.2094 17.7204L46.7646 17.8242Z" fill="#007592"/>
<path d="M47.2974 18.0577L48.447 16.5298L50.6583 23.8451L50.5457 24.0343L47.2974 18.0577Z" fill="#007592"/>
<path d="M53.4375 16.1436L56.7483 17.6659L56.7544 18.0953L51.321 26.3257L51.0729 26.3911L51.0363 26.3743L50.9589 26.1887L53.1489 16.3041L53.4375 16.1436Z" fill="#80B13A"/>
<path d="M56.766 18.0935L51.3369 26.3417L51.0593 26.4225L54.5489 18.2822L56.766 18.0935Z" fill="#6E9123"/>
<path d="M53.9236 17.9377L51.0281 26.3963L50.9465 26.1888L53.1451 16.2941L53.9236 17.9377Z" fill="#3F7937"/>
<path d="M56.7572 17.666L56.766 18.0945L54.549 18.2834L54.424 17.6963L56.7572 17.666Z" fill="#A5C550"/>
<path d="M54.4239 17.6959L53.9234 17.9386L53.1445 16.2947L53.4307 16.1333L54.4239 17.6959Z" fill="#5D8B27"/>
<path d="M48.3801 13.8024L48.5119 13.5485L52.7507 13.5026L53.0247 13.787L50.9939 20.5721L50.8652 20.6468L50.8611 20.6465L50.7219 20.5528L48.3801 13.8024Z" fill="#D81936"/>
<path d="M50.3279 14.2569L50.0225 14.6177L48.366 13.7927L48.4998 13.5418L50.3279 14.2569Z" fill="#AF2C35"/>
<path d="M48.3657 13.794L50.0224 14.619L50.8623 20.6599L50.7153 20.5598L48.3657 13.794Z" fill="#762624"/>
<path d="M50.8193 14.6192L53.0322 13.7827L51.0043 20.58L50.8652 20.6591L50.8193 14.6192Z" fill="#B22B37"/>
<path d="M50.328 14.2573L50.8192 14.6192L53.0324 13.7827L52.7553 13.4998L50.328 14.2573Z" fill="#DC505E"/>
</svg>
